<?xml version="1.0" encoding="UTF-8"?>
<svg version="1.1" xmlns="http://www.w3.org/2000/svg" width="256" height="187">
<path d="M0 0 C1.82155514 0.01621914 1.82155514 0.01621914 4.01609802 0.36216736 C8.94677956 1.02967336 13.77153568 1.17189814 18.74243164 1.20532227 C19.67033508 1.21522186 20.59823853 1.22512146 21.55426025 1.23532104 C24.58953389 1.26664587 27.62482313 1.29157743 30.66015625 1.31640625 C32.77722049 1.33700091 34.89428084 1.357998 37.01133728 1.37937927 C42.55965007 1.4343407 48.10799836 1.4838634 53.65637207 1.53222656 C59.32758714 1.58263194 64.99875122 1.63821824 70.66992188 1.69335938 C81.77990426 1.80062339 92.8899311 1.90213773 104 2 C105.10168457 5.74746704 105.10168457 5.74746704 104.18652344 8.02026367 C103.52958496 9.08337769 103.52958496 9.08337769 102.859375 10.16796875 C102.37098145 10.97057129 101.88258789 11.77317383 101.37939453 12.60009766 C100.84169434 13.45394043 100.30399414 14.3077832 99.75 15.1875 C98.93378174 16.51467041 98.93378174 16.51467041 98.10107422 17.86865234 C94.07540894 24.38079221 89.94344649 30.82675688 85.74536133 37.22900391 C82.70525463 41.86660644 79.8342027 46.57164444 77.12109375 51.41015625 C76.56615234 52.19712891 76.56615234 52.19712891 76 53 C75.34 53 74.68 53 74 53 C74 53.66 74 54.32 74 55 C75.01835938 55.08636719 76.03671875 55.17273438 77.0859375 55.26171875 C83.05059271 56.00762723 88.77446524 57.71805382 94.5703125 59.26708984 C110.93360262 63.61067232 127.16977231 66.19989739 144 68 C143.88156463 61.48946803 143.75675974 54.97907967 143.62768555 48.46875 C143.58457808 46.2575146 143.54288784 44.04625107 143.50268555 41.83496094 C143.44439205 38.64249217 143.38087307 35.45016188 143.31640625 32.2578125 C143.29133751 30.79313034 143.29133751 30.79313034 143.26576233 29.29885864 C143.16794621 24.68779522 143.00033109 20.0843792 142.66772461 15.48388672 C142.61257187 14.69215057 142.55741913 13.90041443 142.50059509 13.08468628 C141.88516042 10.52176019 141.08661047 9.58300117 139 8 C135.58436814 7.20049537 135.58436814 7.20049537 131.8125 6.8125 C129.90404297 6.57466797 129.90404297 6.57466797 127.95703125 6.33203125 C126.98121094 6.22246094 126.00539062 6.11289062 125 6 C125 4.68 125 3.36 125 2 C130.07669294 1.16185562 134.98669809 0.86554627 140.13500977 0.90234375 C140.91643341 0.90380402 141.69785706 0.90526428 142.50296021 0.9067688 C144.18784284 0.91055391 145.87272158 0.91664813 147.55758858 0.92483521 C150.22719749 0.9376721 152.89675633 0.94413292 155.56639099 0.94897461 C161.23178321 0.96036606 166.89713395 0.97961063 172.5625 1 C179.13385163 1.02363395 185.70517944 1.04401243 192.27656364 1.05593872 C194.90108818 1.06240073 197.52553921 1.07490671 200.15003967 1.08764648 C201.76482073 1.09128032 203.37960245 1.09463188 204.99438477 1.09765625 C205.71922562 1.10282257 206.44406647 1.10798889 207.19087219 1.11331177 C211.23422484 1.11373114 215.03314687 0.78379596 219 0 C218.85929844 3.16691607 218.71148731 6.33346378 218.5625 9.5 C218.52318359 10.386875 218.48386719 11.27375 218.44335938 12.1875 C218.18915913 17.50615127 217.73323663 22.7256256 217 28 C215.0625 28.5625 215.0625 28.5625 213 29 C210.9886803 26.9886803 211.19508687 23.1765306 210.79296875 20.4453125 C209.78718398 17.3437299 208.85287139 16.54025993 206 15 C201.53648583 14.07204714 197.18364614 13.81522943 192.6328125 13.68359375 C191.38902832 13.64548584 190.14524414 13.60737793 188.86376953 13.56811523 C187.29997559 13.52501221 185.73618164 13.48190918 184.125 13.4375 C179.13375 13.293125 174.1425 13.14875 169 13 C169 29.5 169 46 169 63 C176.18764216 62.42565169 176.18764216 62.42565169 182.4296875 60.3984375 C183.15736328 60.07609131 183.88503906 59.75374512 184.63476562 59.42163086 C185.37404297 59.07624268 186.11332031 58.73085449 186.875 58.375 C187.65294922 58.02252197 188.43089844 57.67004395 189.23242188 57.30688477 C194.84979689 54.70039945 199.96564807 51.72484388 205.03125 48.15234375 C205.6809375 47.77207031 206.330625 47.39179687 207 47 C207.66 47.33 208.32 47.66 209 48 C207.92492371 49.29854721 206.83956264 50.58858361 205.75 51.875 C205.14671875 52.59429687 204.5434375 53.31359375 203.921875 54.0546875 C202 56 202 56 200.078125 56.9453125 C197.78613514 57.97328271 197.78613514 57.97328271 195.67578125 60.32421875 C176.86026956 79.13973044 148.8565944 87.29524511 122.94848633 87.31469727 C100.58379866 87.0070349 78.4459698 79.62171897 57.4375 72.5 C29.60856881 63.08056938 3.54756025 57.04940825 -26 58 C-26 55.03 -26 52.06 -26 49 C-0.78029491 41.95538964 23.53968786 43.23696674 49 48 C50.97980442 44.95874803 52.95871448 41.916915 54.9375 38.875 C55.48212891 38.03839844 56.02675781 37.20179687 56.58789062 36.33984375 C61.41950146 28.91089299 66.21280797 21.45761234 71 14 C65.1508097 13.94995098 59.30174852 13.91397855 53.45239258 13.89013672 C51.46929753 13.88018029 49.48621675 13.86661028 47.50317383 13.84912109 C24.40062762 12.52826631 24.40062762 12.52826631 4.375 21.5625 C1.68402532 24.97796786 0.37281562 28.83887764 -1.0078125 32.92578125 C-1.33523437 33.61027344 -1.66265625 34.29476562 -2 35 C-3.485 35.495 -3.485 35.495 -5 36 C-6.64511865 28.92703767 -5.29238502 22.27749097 -4.1875 15.1875 C-4.00896484 13.94806641 -3.83042969 12.70863281 -3.64648438 11.43164062 C-2.25878278 2.25878278 -2.25878278 2.25878278 0 0 Z " fill="#D9B768" transform="translate(26,19)"/>
<path d="M0 0 C0.99 0.495 0.99 0.495 2 1 C-5.93318539 9.52693731 -14.44681758 16.37865633 -24 23 C-24.9178125 23.64453125 -25.835625 24.2890625 -26.78125 24.953125 C-30.45732127 27.47736061 -33.8375837 29.3732153 -38 31 C-38.0501139 35.33755045 -38.08605039 39.67493944 -38.10986328 44.01269531 C-38.11980927 45.48277733 -38.13337091 46.95284016 -38.15087891 48.42285156 C-38.25611072 57.49754813 -37.79115563 66.05832546 -36 75 C-30.39 75.66 -24.78 76.32 -19 77 C-18.67 78.32 -18.34 79.64 -18 81 C-21.24824352 81.96703983 -24.18036062 82.12664819 -27.56298828 82.12939453 C-28.67739288 82.13254669 -29.79179749 82.13569885 -30.93997192 82.13894653 C-32.13798431 82.1369223 -33.3359967 82.13489807 -34.5703125 82.1328125 C-35.80288788 82.13376923 -37.03546326 82.13472595 -38.3053894 82.13571167 C-41.5761288 82.13656617 -44.84682063 82.1325431 -48.11755371 82.12695312 C-50.12607326 82.12499896 -52.13454924 82.12695005 -54.14306641 82.13037109 C-57.9938359 82.13652778 -61.84454037 82.13580612 -65.6953125 82.1328125 C-67.49840378 82.13584885 -67.49840378 82.13584885 -69.33792114 82.13894653 C-70.44602142 82.13579437 -71.5541217 82.13264221 -72.69580078 82.12939453 C-73.67412872 82.12859894 -74.65245667 82.12780334 -75.66043091 82.12698364 C-78 82 -78 82 -80 81 C-79.67 79.68 -79.34 78.36 -79 77 C-73.555 76.01 -73.555 76.01 -68 75 C-66.32499698 70.54723396 -65.65087381 66.59317651 -65.3671875 61.8515625 C-65.32562531 61.19417084 -65.28406311 60.53677917 -65.24124146 59.85946655 C-65.11160274 57.78169152 -64.99312162 55.7034583 -64.875 53.625 C-64.78850017 52.20698593 -64.70126768 50.78901635 -64.61328125 49.37109375 C-64.4003835 45.91453608 -64.19747939 42.45747679 -64 39 C-64.72566162 39.16008545 -65.45132324 39.3201709 -66.19897461 39.48510742 C-92.63400378 44.34447084 -120.55500323 34.81360305 -144.50390625 24.45214844 C-145.29539062 24.11860352 -146.086875 23.78505859 -146.90234375 23.44140625 C-147.94636353 22.98809937 -147.94636353 22.98809937 -149.01147461 22.52563477 C-151.46448189 21.87722167 -152.67184704 21.99658877 -155 23 C-156.43509947 24.60958247 -156.43509947 24.60958247 -157.55078125 26.68359375 C-157.9981665 27.44115967 -158.44555176 28.19872559 -158.90649414 28.97924805 C-159.37047607 29.79047119 -159.83445801 30.60169434 -160.3125 31.4375 C-161.29451378 33.10035504 -162.2788739 34.76182675 -163.265625 36.421875 C-163.73806641 37.22044922 -164.21050781 38.01902344 -164.69726562 38.84179688 C-166.6957161 42.15257315 -168.91271536 45.28097119 -171.1640625 48.421875 C-173.63717631 51.89475822 -176.0458852 55.40813892 -178.4375 58.9375 C-178.88746338 59.58936279 -179.33742676 60.24122559 -179.80102539 60.9128418 C-182.37719268 64.61944102 -182.37719268 64.61944102 -183 69 C-175.51067223 68.93262549 -168.0218512 68.84267461 -160.53295898 68.73754883 C-157.98907509 68.70444006 -155.44512021 68.67636512 -152.90112305 68.65356445 C-149.22934928 68.61975968 -145.55821783 68.56743016 -141.88671875 68.51171875 C-140.76230881 68.50532883 -139.63789886 68.4989389 -138.47941589 68.49235535 C-129.52257718 68.32823911 -121.18038507 66.76960368 -113 63 C-111.72199272 60.72313553 -111.72199272 60.72313553 -111 58 C-110.64679688 57.04480469 -110.29359375 56.08960938 -109.9296875 55.10546875 C-109.58164063 54.14253906 -109.23359375 53.17960937 -108.875 52.1875 C-108.52179688 51.21167969 -108.16859375 50.23585937 -107.8046875 49.23046875 C-107.53914063 48.49441406 -107.27359375 47.75835937 -107 47 C-105.02 47.495 -105.02 47.495 -103 48 C-100.82946559 58.26352699 -103.69752603 70.15862756 -107 80 C-109.68323872 82.68323872 -111.72181996 82.23854772 -115.36849976 82.25212097 C-116.26783234 82.24497574 -117.16716492 82.23783051 -118.09375 82.23046875 C-119.04440338 82.23037308 -119.99505676 82.2302774 -120.97451782 82.23017883 C-124.1497981 82.22640355 -127.3247821 82.20731305 -130.5 82.1875 C-132.71207565 82.18060356 -134.92415256 82.17409985 -137.13623047 82.16796875 C-163.76039581 82.06504119 -190.38179751 81.54170896 -217 81 C-218.17675781 76.35595703 -218.17675781 76.35595703 -216.5859375 73.15234375 C-215.85632813 72.09144531 -215.12671875 71.03054687 -214.375 69.9375 C-213.53209307 68.68650707 -212.68967353 67.43518565 -211.84765625 66.18359375 C-211.38762207 65.51054199 -210.92758789 64.83749023 -210.45361328 64.14404297 C-207.84811862 60.30100398 -205.33735537 56.39627787 -202.8125 52.5 C-201.99918213 51.25138184 -201.99918213 51.25138184 -201.16943359 49.97753906 C-196.30206017 42.49905942 -191.51444898 34.97075788 -186.75708008 27.421875 C-183.64343704 22.50073772 -180.43759865 17.70104442 -177 13 C-178.32 12.01 -179.64 11.02 -181 10 C-177.05870588 8.68623529 -175.3138533 9.61612211 -171.375 10.87890625 C-170.72064972 11.08610291 -170.06629944 11.29329956 -169.39212036 11.5067749 C-167.9886968 11.95246469 -166.58655969 12.40222174 -165.18560791 12.85562134 C-162.98567042 13.56713454 -160.78226533 14.26679328 -158.57763672 14.96362305 C-152.55893654 16.87067271 -146.54940497 18.79979847 -140.5703125 20.828125 C-106.18124227 32.39252624 -69.69814541 35.92015465 -36.31640625 19.66796875 C-35.22199219 19.11753906 -34.12757813 18.56710938 -33 18 C-31.67624421 17.34931772 -30.35200141 16.69962554 -29.02734375 16.05078125 C-14.08696476 8.76855818 -14.08696476 8.76855818 0 0 Z " fill="#F6E8A2" transform="translate(234,83)"/>
<path d="M0 0 C0.99 0.495 0.99 0.495 2 1 C-5.93318539 9.52693731 -14.44681758 16.37865633 -24 23 C-24.9178125 23.64453125 -25.835625 24.2890625 -26.78125 24.953125 C-30.45732127 27.47736061 -33.8375837 29.3732153 -38 31 C-38.0501139 35.33755045 -38.08605039 39.67493944 -38.10986328 44.01269531 C-38.11980927 45.48277733 -38.13337091 46.95284016 -38.15087891 48.42285156 C-38.25611072 57.49754813 -37.79115563 66.05832546 -36 75 C-30.39 75.66 -24.78 76.32 -19 77 C-18.67 78.32 -18.34 79.64 -18 81 C-21.24824352 81.96703983 -24.18036062 82.12664819 -27.56298828 82.12939453 C-28.67739288 82.13254669 -29.79179749 82.13569885 -30.93997192 82.13894653 C-32.13798431 82.1369223 -33.3359967 82.13489807 -34.5703125 82.1328125 C-35.80288788 82.13376923 -37.03546326 82.13472595 -38.3053894 82.13571167 C-41.5761288 82.13656617 -44.84682063 82.1325431 -48.11755371 82.12695312 C-50.12607326 82.12499896 -52.13454924 82.12695005 -54.14306641 82.13037109 C-57.9938359 82.13652778 -61.84454037 82.13580612 -65.6953125 82.1328125 C-67.49840378 82.13584885 -67.49840378 82.13584885 -69.33792114 82.13894653 C-70.44602142 82.13579437 -71.5541217 82.13264221 -72.69580078 82.12939453 C-73.67412872 82.12859894 -74.65245667 82.12780334 -75.66043091 82.12698364 C-78 82 -78 82 -80 81 C-79.505 79.02 -79.505 79.02 -79 77 C-73.555 76.01 -73.555 76.01 -68 75 C-66.32499698 70.54723396 -65.65087381 66.59317651 -65.3671875 61.8515625 C-65.32562531 61.19417084 -65.28406311 60.53677917 -65.24124146 59.85946655 C-65.11160274 57.78169152 -64.99312162 55.7034583 -64.875 53.625 C-64.78850017 52.20698593 -64.70126768 50.78901635 -64.61328125 49.37109375 C-64.4003835 45.91453608 -64.19747939 42.45747679 -64 39 C-64.72566162 39.16008545 -65.45132324 39.3201709 -66.19897461 39.48510742 C-92.56894016 44.33251066 -119.35347838 34.51461282 -143.625 25.375 C-144.63989502 25.00286377 -145.65479004 24.63072754 -146.70043945 24.24731445 C-148.10555786 23.70337036 -148.10555786 23.70337036 -149.5390625 23.1484375 C-150.37646973 22.83052246 -151.21387695 22.51260742 -152.07666016 22.18505859 C-154 21 -154 21 -154.77880859 18.86572266 C-154.85180176 18.25003418 -154.92479492 17.6343457 -155 17 C-150.10672229 18.29994203 -145.22754291 19.61256509 -140.3984375 21.13671875 C-131.55208003 23.92577868 -122.67250285 25.99532836 -113.5625 27.75 C-112.47316162 27.96060059 -111.38382324 28.17120117 -110.26147461 28.38818359 C-83.00902356 33.47341974 -57.78093805 30.46343999 -33 18 C-31.67624421 17.34931772 -30.35200141 16.69962554 -29.02734375 16.05078125 C-14.08696476 8.76855818 -14.08696476 8.76855818 0 0 Z " fill="#F8D893" transform="translate(234,83)"/>
<path d="M0 0 C1.32 0.33 2.64 0.66 4 1 C6.17053441 11.26352699 3.30247397 23.15862756 0 33 C-2.68323872 35.68323872 -4.72181996 35.23854772 -8.36849976 35.25212097 C-9.26783234 35.24497574 -10.16716492 35.23783051 -11.09375 35.23046875 C-12.04440338 35.23037308 -12.99505676 35.2302774 -13.97451782 35.23017883 C-17.1497981 35.22640355 -20.3247821 35.20731305 -23.5 35.1875 C-25.71207565 35.18060356 -27.92415256 35.17409985 -30.13623047 35.16796875 C-56.76039581 35.06504119 -83.38179751 34.54170896 -110 34 C-110 33.67 -110 33.34 -110 33 C-92.84 32.67 -75.68 32.34 -58 32 C-63.28 32 -68.56 32 -74 32 C-74 31.01 -74 30.02 -74 29 C-73.01 29 -72.02 29 -71 29 C-70.67 27.68 -70.34 26.36 -70 25 C-72.64 24.67 -75.28 24.34 -78 24 C-78 23.34 -78 22.68 -78 22 C-77.32285446 21.99413376 -76.64570892 21.98826752 -75.94804382 21.98222351 C-68.85791844 21.91795986 -61.7682332 21.83345709 -54.6784668 21.73754883 C-52.03757556 21.70443066 -49.39661576 21.67635856 -46.75561523 21.65356445 C-42.94485441 21.61977729 -39.13471444 21.56744809 -35.32421875 21.51171875 C-33.5719825 21.50213387 -33.5719825 21.50213387 -31.78434753 21.49235535 C-22.70268009 21.33189926 -14.29737691 19.8206266 -6 16 C-4.72199272 13.72313553 -4.72199272 13.72313553 -4 11 C-3.64679688 10.04480469 -3.29359375 9.08960938 -2.9296875 8.10546875 C-2.58164063 7.14253906 -2.23359375 6.17960938 -1.875 5.1875 C-1.52179688 4.21167969 -1.16859375 3.23585937 -0.8046875 2.23046875 C-0.53914063 1.49441406 -0.27359375 0.75835937 0 0 Z " fill="#D2B76A" transform="translate(127,130)"/>
<path d="M0 0 C-0.14214728 3.00021487 -0.28861696 6.00011789 -0.4375 9 C-0.47681641 9.83917969 -0.51613281 10.67835937 -0.55664062 11.54296875 C-0.81851332 16.74013458 -1.2899352 21.84457153 -2 27 C-3.9375 27.5625 -3.9375 27.5625 -6 28 C-8.0113197 25.9886803 -7.80491313 22.1765306 -8.20703125 19.4453125 C-9.21281602 16.3437299 -10.14712861 15.54025993 -13 14 C-17.46351417 13.07204714 -21.81635386 12.81522943 -26.3671875 12.68359375 C-27.61097168 12.64548584 -28.85475586 12.60737793 -30.13623047 12.56811523 C-31.70002441 12.52501221 -33.26381836 12.48190918 -34.875 12.4375 C-39.86625 12.293125 -44.8575 12.14875 -50 12 C-50 28.5 -50 45 -50 62 C-42.81235784 61.42565169 -42.81235784 61.42565169 -36.5703125 59.3984375 C-35.84263672 59.07609131 -35.11496094 58.75374512 -34.36523438 58.42163086 C-33.25631836 57.90354858 -33.25631836 57.90354858 -32.125 57.375 C-31.34705078 57.02252197 -30.56910156 56.67004395 -29.76757812 56.30688477 C-24.15020311 53.70039945 -19.03435193 50.72484388 -13.96875 47.15234375 C-13.3190625 46.77207031 -12.669375 46.39179687 -12 46 C-11.34 46.33 -10.68 46.66 -10 47 C-11.07507629 48.29854721 -12.16043736 49.58858361 -13.25 50.875 C-13.85328125 51.59429687 -14.4565625 52.31359375 -15.078125 53.0546875 C-17 55 -17 55 -18.921875 55.9453125 C-21.20707295 56.96771425 -21.20707295 56.96771425 -23.2734375 59.296875 C-26.46671365 62.46270178 -29.8726149 64.80215503 -33.625 67.25 C-34.29273438 67.69601563 -34.96046875 68.14203125 -35.6484375 68.6015625 C-38.40292181 70.41952214 -40.85542476 71.95180825 -44 73 C-44 72.34 -44 71.68 -44 71 C-46.97 70.505 -46.97 70.505 -50 70 C-50 69.01 -50 68.02 -50 67 C-50.65063416 66.55617477 -51.30126831 66.11234955 -51.97161865 65.65507507 C-54 64 -54 64 -54.48101807 61.51325989 C-54.47213562 60.52508774 -54.46325317 59.53691559 -54.45410156 58.51879883 C-54.45364838 56.83739555 -54.45364838 56.83739555 -54.45318604 55.12202454 C-54.43254089 53.91257675 -54.41189575 52.70312897 -54.390625 51.45703125 C-54.38496521 50.21829758 -54.37930542 48.9795639 -54.37347412 47.70329285 C-54.35486224 44.41335722 -54.31893668 41.12420519 -54.2746582 37.83453369 C-54.23370629 34.47637521 -54.2154634 31.11810195 -54.1953125 27.75976562 C-54.15116388 21.17286987 -54.08418959 14.58649904 -54 8 C-52.68 8.66 -51.36 9.32 -50 10 C-50.33 8.02 -50.66 6.04 -51 4 C-65.85 3.505 -65.85 3.505 -81 3 C-81 2.67 -81 2.34 -81 2 C-80.0626149 2.00222061 -79.1252298 2.00444122 -78.15943909 2.00672913 C-69.34478215 2.02696143 -60.5301299 2.04197256 -51.71545506 2.05181217 C-47.18325906 2.05704078 -42.65108173 2.06413801 -38.11889648 2.07543945 C-33.7487717 2.08626914 -29.37866492 2.09227701 -25.00852776 2.09487724 C-23.33749037 2.09673135 -21.66645403 2.10035168 -19.99542427 2.10573006 C-17.66302449 2.11294159 -15.33070007 2.1139909 -12.99829102 2.11352539 C-12.3005809 2.11712067 -11.60287079 2.12071594 -10.88401794 2.12442017 C-7.66340619 2.39062466 -7.66340619 2.39062466 -5 1 C-2 0 -2 0 0 0 Z " fill="#EBD197" transform="translate(245,20)"/>
<path d="M0 0 C4.89327771 1.29994203 9.77245709 2.61256509 14.6015625 4.13671875 C23.44791997 6.92577868 32.32749715 8.99532836 41.4375 10.75 C42.52683838 10.96060059 43.61617676 11.17120117 44.73852539 11.38818359 C64.80566063 15.13265859 84.09369734 14.94989951 103.5925293 8.58911133 C108.81087096 6.90543548 108.81087096 6.90543548 111 8 C109.68 9.32 108.36 10.64 107 12 C106.505 11.01 106.505 11.01 106 10 C104.35 10.33 102.7 10.66 101 11 C101 11.66 101 12.32 101 13 C99.865625 13.12375 98.73125 13.2475 97.5625 13.375 C96.386875 13.58125 95.21125 13.7875 94 14 C93.67 14.66 93.34 15.32 93 16 C92.34 16 91.68 16 91 16 C90.34 17.32 89.68 18.64 89 20 C90.485 20.495 90.485 20.495 92 21 C92 25.95 92 30.9 92 36 C91.67 36 91.34 36 91 36 C91 31.38 91 26.76 91 22 C89.35 22.33 87.7 22.66 86 23 C59.51481161 24.98508855 35.84619778 17.58980229 11.375 8.375 C10.36010498 8.00286377 9.34520996 7.63072754 8.29956055 7.24731445 C7.36281494 6.88468506 6.42606934 6.52205566 5.4609375 6.1484375 C4.62353027 5.83052246 3.78612305 5.51260742 2.92333984 5.18505859 C1 4 1 4 0.22119141 1.86572266 C0.14819824 1.25003418 0.07520508 0.6343457 0 0 Z " fill="#8C743B" transform="translate(79,100)"/>
<path d="M0 0 C1.32 0.33 2.64 0.66 4 1 C6.17053441 11.26352699 3.30247397 23.15862756 0 33 C-2 35 -2 35 -4.13870239 35.24050903 C-5.0225058 35.23606781 -5.9063092 35.23162659 -6.81689453 35.22705078 C-7.81778107 35.22689972 -8.8186676 35.22674866 -9.84988403 35.22659302 C-11.47493362 35.21110916 -11.47493362 35.21110916 -13.1328125 35.1953125 C-14.23978485 35.1924826 -15.3467572 35.18965271 -16.48727417 35.18673706 C-20.03329137 35.17551519 -23.57905875 35.15040691 -27.125 35.125 C-29.52473594 35.1149728 -31.92447583 35.1058465 -34.32421875 35.09765625 C-40.21623151 35.07556932 -46.10809791 35.04207207 -52 35 C-52 34.67 -52 34.34 -52 34 C-39.79 33.67 -27.58 33.34 -15 33 C-15 32.67 -15 32.34 -15 32 C-12.69 31.67 -10.38 31.34 -8 31 C-7.32326553 27.59679066 -7.32326553 27.59679066 -7 24 C-7.99 23.01 -7.99 23.01 -9 22 C-10.89667109 22.28552357 -10.89667109 22.28552357 -13 23 C-16.62128195 23.85808874 -19.89939378 24.09863323 -23.61645508 24.02172852 C-24.71721878 24.00163223 -25.81798248 23.98153595 -26.95210266 23.96083069 C-28.1293541 23.93379562 -29.30660553 23.90676056 -30.51953125 23.87890625 C-32.34009285 23.84348976 -32.34009285 23.84348976 -34.19743347 23.80735779 C-38.06924542 23.73086082 -41.94085032 23.64677591 -45.8125 23.5625 C-48.43944304 23.50926537 -51.06639614 23.45652506 -53.69335938 23.40429688 C-60.12903402 23.2752645 -66.56455519 23.14000385 -73 23 C-73 22.67 -73 22.34 -73 22 C-72.38549484 21.99413376 -71.77098969 21.98826752 -71.13786316 21.98222351 C-64.69651615 21.91789885 -58.25565085 21.83338203 -51.81469727 21.73754883 C-49.4163247 21.70445558 -47.01787716 21.67637598 -44.61938477 21.65356445 C-41.15609017 21.61973056 -37.69347297 21.56740059 -34.23046875 21.51171875 C-33.17168015 21.50532883 -32.11289154 21.4989389 -31.02201843 21.49235535 C-22.25322 21.32222566 -14.00354455 19.69230044 -6 16 C-4.72199272 13.72313553 -4.72199272 13.72313553 -4 11 C-3.64679688 10.04480469 -3.29359375 9.08960938 -2.9296875 8.10546875 C-2.58164063 7.14253906 -2.23359375 6.17960938 -1.875 5.1875 C-1.52179688 4.21167969 -1.16859375 3.23585937 -0.8046875 2.23046875 C-0.53914063 1.49441406 -0.27359375 0.75835937 0 0 Z " fill="#6F5622" transform="translate(127,130)"/>
<path d="M0 0 C0.66 0.33 1.32 0.66 2 1 C-5.93318539 9.52693731 -14.44681758 16.37865633 -24 23 C-24.9178125 23.64453125 -25.835625 24.2890625 -26.78125 24.953125 C-30.56132905 27.54877928 -33.66277883 29.26511153 -38 31 C-38 41.23 -38 51.46 -38 62 C-38.99 62.495 -38.99 62.495 -40 63 C-40 52.77 -40 42.54 -40 32 C-40.99 31.67 -41.98 31.34 -43 31 C-43.33 28.36 -43.66 25.72 -44 23 C-43.3915625 22.731875 -42.783125 22.46375 -42.15625 22.1875 C-27.80847439 15.77320031 -12.88799707 9.05643037 0 0 Z " fill="#B8A673" transform="translate(234,83)"/>
<path d="M0 0 C49.5 0.495 49.5 0.495 100 1 C101 5 101 5 100.10717773 7.1472168 C99.63739502 7.90687744 99.1676123 8.66653809 98.68359375 9.44921875 C98.16603516 10.29806641 97.64847656 11.14691406 97.11523438 12.02148438 C96.28475586 13.34116211 96.28475586 13.34116211 95.4375 14.6875 C94.64762695 15.97817383 94.64762695 15.97817383 93.84179688 17.29492188 C86.38198793 29.41140471 86.38198793 29.41140471 83 34 C82.67 34 82.34 34 82 34 C81.83232136 32.04175306 81.66588795 30.08339945 81.5 28.125 C81.4071875 27.03445312 81.314375 25.94390625 81.21875 24.8203125 C81.09437042 23.21670436 81 21.60842449 81 20 C83.64 20 86.28 20 89 20 C89 19.10796875 89 18.2159375 89 17.296875 C89 12.53125 89 7.765625 89 3 C90.98 3 92.96 3 95 3 C95 4.98 95 6.96 95 9 C95.66 9 96.32 9 97 9 C97 8.01 97 7.02 97 6 C97.66 6 98.32 6 99 6 C98.505 4.02 98.505 4.02 98 2 C96.2247419 2.00666183 96.2247419 2.00666183 94.41362 2.01345825 C83.27444426 2.05395562 72.13528341 2.08396096 60.99605083 2.10362434 C55.26890183 2.11407322 49.54181213 2.12825256 43.81469727 2.15087891 C38.29043302 2.17256791 32.76622591 2.18456031 27.24192238 2.18975449 C25.13154005 2.19345734 23.02116093 2.20068782 20.91080284 2.21146011 C17.96089225 2.22592258 15.01121948 2.22798014 12.0612793 2.22705078 C10.7449778 2.23783661 10.7449778 2.23783661 9.40208435 2.24884033 C3.34215648 2.22810432 3.34215648 2.22810432 0 0 Z " fill="#C29738" transform="translate(30,20)"/>
<path d="M0 0 C-1.32 1.32 -2.64 2.64 -4 4 C-4.495 3.01 -4.495 3.01 -5 2 C-6.65 2.33 -8.3 2.66 -10 3 C-10 3.66 -10 4.32 -10 5 C-11.134375 5.12375 -12.26875 5.2475 -13.4375 5.375 C-14.613125 5.58125 -15.78875 5.7875 -17 6 C-17.33 6.66 -17.66 7.32 -18 8 C-18.66 8 -19.32 8 -20 8 C-20.66 9.32 -21.32 10.64 -22 12 C-21.01 12.33 -20.02 12.66 -19 13 C-19 17.95 -19 22.9 -19 28 C-19.33 28 -19.66 28 -20 28 C-20 23.38 -20 18.76 -20 14 C-22.13855469 14.05220703 -22.13855469 14.05220703 -24.3203125 14.10546875 C-47.21095437 14.49547969 -47.21095437 14.49547969 -56 11 C-56.33 10.01 -56.66 9.02 -57 8 C-56.13556274 7.99383667 -56.13556274 7.99383667 -55.25366211 7.98754883 C-37.56124734 7.76951158 -20.45927078 5.66505615 -3.79052734 -0.53369141 C-2 -1 -2 -1 0 0 Z " fill="#AA925D" transform="translate(190,108)"/>
<path d="M0 0 C0.33 0 0.66 0 1 0 C1 16.5 1 33 1 50 C8.18764216 49.42565169 8.18764216 49.42565169 14.4296875 47.3984375 C15.15736328 47.07609131 15.88503906 46.75374512 16.63476562 46.42163086 C17.37404297 46.07624268 18.11332031 45.73085449 18.875 45.375 C19.65294922 45.02252197 20.43089844 44.67004395 21.23242188 44.30688477 C26.84979689 41.70039945 31.96564807 38.72484388 37.03125 35.15234375 C37.6809375 34.77207031 38.330625 34.39179687 39 34 C39.99 34.495 39.99 34.495 41 35 C39.92492371 36.29854721 38.83956264 37.58858361 37.75 38.875 C37.14671875 39.59429687 36.5434375 40.31359375 35.921875 41.0546875 C34 43 34 43 32.078125 43.9453125 C29.16529702 45.42362745 27.30172794 47.69153201 25 50 C22.83753725 51.70503153 20.58839596 53.26344737 18.3125 54.8125 C17.44141602 55.42254883 17.44141602 55.42254883 16.55273438 56.04492188 C12.25669643 59 12.25669643 59 10 59 C8.875 53.25 8.875 53.25 10 51 C6.7 51 3.4 51 0 51 C0 34.17 0 17.34 0 0 Z " fill="#928258" transform="translate(194,32)"/>
<path d="M0 0 C1.32 0.33 2.64 0.66 4 1 C3.01 1.495 3.01 1.495 2 2 C3.74506615 3.74506615 6.19039143 3.23282784 8.56640625 3.31640625 C10.2534668 3.37924805 10.2534668 3.37924805 11.97460938 3.44335938 C13.75061523 3.50233398 13.75061523 3.50233398 15.5625 3.5625 C16.75037109 3.60568359 17.93824219 3.64886719 19.16210938 3.69335938 C22.10794784 3.79983546 25.0538743 3.90184841 28 4 C28 4.33 28 4.66 28 5 C18.76 5.33 9.52 5.66 0 6 C-0.33 22.83 -0.66 39.66 -1 57 C2.3 57 5.6 57 9 57 C8.67 58.32 8.34 59.64 8 61 C8.66 61.33 9.32 61.66 10 62 C9.6875 63.9375 9.6875 63.9375 9 66 C7.515 66.495 7.515 66.495 6 67 C6 66.34 6 65.68 6 65 C4.02 64.67 2.04 64.34 0 64 C0 63.01 0 62.02 0 61 C-0.65063416 60.55617477 -1.30126831 60.11234955 -1.97161865 59.65507507 C-4 58 -4 58 -4.48101807 55.51325989 C-4.47213562 54.52508774 -4.46325317 53.53691559 -4.45410156 52.51879883 C-4.45379944 51.39786331 -4.45349731 50.2769278 -4.45318604 49.12202454 C-4.43254089 47.91257675 -4.41189575 46.70312897 -4.390625 45.45703125 C-4.38496521 44.21829758 -4.37930542 42.9795639 -4.37347412 41.70329285 C-4.35486224 38.41335722 -4.31893668 35.12420519 -4.2746582 31.83453369 C-4.23370629 28.47637521 -4.2154634 25.11810195 -4.1953125 21.75976562 C-4.15116388 15.17286987 -4.08418959 8.58649904 -4 2 C-2.02 2.99 -2.02 2.99 0 4 C0 2.68 0 1.36 0 0 Z " fill="#F7DDA4" transform="translate(195,26)"/>
<path d="M0 0 C0.33 0 0.66 0 1 0 C1.33 6.6 1.66 13.2 2 20 C2.66 20 3.32 20 4 20 C4 20.66 4 21.32 4 22 C3.34 22.66 2.68 23.32 2 24 C23.78 24.495 23.78 24.495 46 25 C46.33 24.34 46.66 23.68 47 23 C47 23.99 47 24.98 47 26 C43.75175648 26.96703983 40.81963938 27.12664819 37.43701172 27.12939453 C36.32260712 27.13254669 35.20820251 27.13569885 34.06002808 27.13894653 C32.86201569 27.1369223 31.6640033 27.13489807 30.4296875 27.1328125 C29.19711212 27.13376923 27.96453674 27.13472595 26.6946106 27.13571167 C23.4238712 27.13656617 20.15317937 27.1325431 16.88244629 27.12695312 C14.87392674 27.12499896 12.86545076 27.12695005 10.85693359 27.13037109 C7.0061641 27.13652778 3.15545963 27.13580612 -0.6953125 27.1328125 C-1.89737335 27.13483673 -3.0994342 27.13686096 -4.33792114 27.13894653 C-5.44602142 27.13579437 -6.5541217 27.13264221 -7.69580078 27.12939453 C-8.67412872 27.12859894 -9.65245667 27.12780334 -10.66043091 27.12698364 C-13 27 -13 27 -15 26 C-14.67 24.68 -14.34 23.36 -14 22 C-8.555 21.01 -8.555 21.01 -3 20 C-1.28878246 15.47849025 -0.64776388 11.44382847 -0.375 6.625 C-0.30023438 5.37976563 -0.22546875 4.13453125 -0.1484375 2.8515625 C-0.09945312 1.91054687 -0.05046875 0.96953125 0 0 Z " fill="#998656" transform="translate(169,138)"/>
<path d="M0 0 C-0.9590625 0.433125 -0.9590625 0.433125 -1.9375 0.875 C-4.15206079 1.82823451 -4.15206079 1.82823451 -5 4 C-5.495 3.505 -5.495 3.505 -6 3 C-8.14743549 2.90574405 -10.29801026 2.88257352 -12.44750977 2.88647461 C-13.12065216 2.88632858 -13.79379456 2.88618256 -14.48733521 2.8860321 C-16.72205784 2.88673122 -18.9566981 2.89452348 -21.19140625 2.90234375 C-22.73697362 2.90420794 -24.28254157 2.90563184 -25.82810974 2.90663147 C-29.90357077 2.9104566 -33.97899637 2.92028683 -38.05444336 2.93133545 C-42.21011882 2.94154968 -46.36579999 2.94612911 -50.52148438 2.95117188 C-58.68100587 2.96190911 -66.84049853 2.97898546 -75 3 C-75.33 5.31 -75.66 7.62 -76 10 C-76.51046875 9.52949219 -77.0209375 9.05898438 -77.546875 8.57421875 C-80.75760241 6.51383158 -83.47808397 6.26652693 -87.25 5.8125 C-88.51328125 5.65394531 -89.7765625 5.49539062 -91.078125 5.33203125 C-92.52445313 5.16767578 -92.52445313 5.16767578 -94 5 C-94 3.68 -94 2.36 -94 1 C-88.90772309 0.15844573 -83.98153295 -0.13432782 -78.81738281 -0.09765625 C-77.63801903 -0.09546585 -77.63801903 -0.09546585 -76.43482971 -0.0932312 C-74.74011855 -0.08944645 -73.04541125 -0.08335262 -71.35071564 -0.07516479 C-68.66932889 -0.06233834 -65.98799191 -0.05587017 -63.30657959 -0.05102539 C-57.62103059 -0.03963448 -51.93552298 -0.02037263 -46.25 0 C-39.64627124 0.02359912 -33.04256559 0.04397367 -26.43880463 0.05593872 C-23.79586161 0.06242578 -21.15299013 0.07492957 -18.5100708 0.08764648 C-16.89506086 0.09127788 -15.28005025 0.09462975 -13.66503906 0.09765625 C-12.56159904 0.10540573 -12.56159904 0.10540573 -11.43586731 0.11331177 C-7.31760866 0.11374152 -3.82906946 -1.27635649 0 0 Z " fill="#92825B" transform="translate(245,20)"/>
<path d="M0 0 C13.4364961 0.90996443 13.4364961 0.90996443 18.75 1.5625 C26.45347711 2.39250427 34.2635435 2.07584761 42 2 C42 2.33 42 2.66 42 3 C38.61363691 3.74515899 35.38056897 4.16770563 31.91796875 4.31640625 C30.52094727 4.37924805 30.52094727 4.37924805 29.09570312 4.44335938 C28.13599609 4.48267578 27.17628906 4.52199219 26.1875 4.5625 C25.20845703 4.60568359 24.22941406 4.64886719 23.22070312 4.69335938 C20.81392973 4.7990226 18.40706017 4.90112327 16 5 C16 5.33 16 5.66 16 6 C26.0421956 8.77688539 35.63282798 9.63994253 46 10 C46 10.33 46 10.66 46 11 C10.86482295 12.2432153 10.86482295 12.2432153 0 5 C2.97 5.495 2.97 5.495 6 6 C6 5.34 6 4.68 6 4 C6.66 3.67 7.32 3.34 8 3 C5.36 2.67 2.72 2.34 0 2 C0 1.34 0 0.68 0 0 Z " fill="#8A6F33" transform="translate(119,112)"/>
<path d="M0 0 C3.00370072 5.13132207 3.88333971 9.13444504 2.54296875 15 C2.07229787 16.67951623 1.54140921 18.34193429 1 20 C1.66 20 2.32 20 3 20 C2.649375 20.9075 2.29875 21.815 1.9375 22.75 C0.96178903 26.13246468 0.97248002 26.82402916 2 30 C3.547604 38.77582501 3.547604 38.77582501 2 42 C0.515 42.495 0.515 42.495 -1 43 C-2.58206561 41.41793439 -2.12980014 39.80975472 -2.1328125 37.6171875 C-2.13474609 36.70340332 -2.13667969 35.78961914 -2.13867188 34.84814453 C-2.13416016 33.86700684 -2.12964844 32.88586914 -2.125 31.875 C-2.12306641 30.88483887 -2.12113281 29.89467773 -2.11914062 28.87451172 C-2.07254178 20.88151585 -1.69453693 12.96236981 -1 5 C-2.98 5 -4.96 5 -7 5 C-2.25 0 -2.25 0 0 0 Z " fill="#ECC97F" transform="translate(172,116)"/>
<path d="M0 0 C0.66 0 1.32 0 2 0 C3.25664978 2.90600261 4 4.79604584 4 8 C2.75932024 10.6822932 1.16085503 13.1646461 -0.375 15.6875 C-0.7875 16.38939453 -1.2 17.09128906 -1.625 17.81445312 C-2.68936339 19.58095301 -3.83864351 21.29569886 -5 23 C-5.66 23 -6.32 23 -7 23 C-7 23.66 -7 24.32 -7 25 C-5.01432292 25.1953125 -3.02864583 25.390625 -1.04296875 25.5859375 C1 26 1 26 4 28 C-4.57142857 27 -4.57142857 27 -8 26 C-8 26.99 -8 27.98 -8 29 C-9.33333333 28.33333333 -10.66666667 27.66666667 -12 27 C-11.67 24.36 -11.34 21.72 -11 19 C-9.68 19.33 -8.36 19.66 -7 20 C-5.71539717 17.17164294 -5.71539717 17.17164294 -6.6875 15.0625 C-6.790625 14.381875 -6.89375 13.70125 -7 13 C-5.1875 10.75 -5.1875 10.75 -3 9 C-2.34 9 -1.68 9 -1 9 C-1 8.34 -1 7.68 -1 7 C-1.99 6.67 -2.98 6.34 -4 6 C-2.7260411 3.96166576 -1.38938077 1.96147874 0 0 Z " fill="#A28139" transform="translate(107,49)"/>
<path d="M0 0 C0.99 0.33 1.98 0.66 3 1 C3 1.66 3 2.32 3 3 C4.65 3 6.3 3 8 3 C8 2.34 8 1.68 8 1 C11.69541586 0.04975021 14.30458414 0.04975021 18 1 C18.33 2.98 18.66 4.96 19 7 C19.53625 7.12375 20.0725 7.2475 20.625 7.375 C24.18796856 8.3126233 27.69937375 9.34968687 31 11 C31 11.66 31 12.32 31 13 C33.475 13.495 33.475 13.495 36 14 C32.60708334 15.13097222 31.95641261 14.88720163 28.7109375 13.7421875 C27.85910889 13.44836182 27.00728027 13.15453613 26.12963867 12.85180664 C24.76609253 12.36828735 24.76609253 12.36828735 23.375 11.875 C21.48392792 11.22277611 19.59198483 10.57307268 17.69921875 9.92578125 C16.74837402 9.6004541 15.7975293 9.27512695 14.81787109 8.93994141 C10.63695677 7.54533734 6.42067871 6.28777361 2.1875 5.0625 C1.45901855 4.85157715 0.73053711 4.6406543 -0.02001953 4.42333984 C-1.67908942 3.94567357 -3.33938983 3.47228363 -5 3 C-4.360625 2.690625 -3.72125 2.38125 -3.0625 2.0625 C-1.06389179 1.1654837 -1.06389179 1.1654837 0 0 Z " fill="#93773E" transform="translate(61,80)"/>
<path d="M0 0 C1.96035175 0.44962196 3.91824309 0.90998248 5.875 1.375 C7.51082031 1.75785156 7.51082031 1.75785156 9.1796875 2.1484375 C12 3 12 3 14 5 C13.79835964 9.86566959 11.06585404 13.40418181 8.4375 17.3125 C8.01275391 17.95767578 7.58800781 18.60285156 7.15039062 19.26757812 C6.10733607 20.84973954 5.05462128 22.42552501 4 24 C3 22 2 20 1 18 C2.65 17.67 4.3 17.34 6 17 C5.67 12.71 5.34 8.42 5 4 C3.02 3.34 1.04 2.68 -1 2 C-0.67 1.34 -0.34 0.68 0 0 Z " fill="#D7C27C" transform="translate(66,96)"/>
<path d="M0 0 C5.445 1.485 5.445 1.485 11 3 C6.703125 10.03125 6.703125 10.03125 5 12 C3.68 12 2.36 12 1 12 C0.95875 12.886875 0.9175 13.77375 0.875 14.6875 C-0.28168653 19.06638474 -2.45037671 20.31967221 -6 23 C-6.66 23.99 -7.32 24.98 -8 26 C-8.99 26.33 -9.98 26.66 -11 27 C-9.72199484 23.55044666 -8.23881563 20.61909971 -6.1796875 17.57421875 C-5.64472656 16.77822266 -5.10976563 15.98222656 -4.55859375 15.16210938 C-4.00300781 14.34548828 -3.44742188 13.52886719 -2.875 12.6875 C-2.31167969 11.85154297 -1.74835937 11.01558594 -1.16796875 10.15429688 C0.21720789 8.10000948 1.60662219 6.04872962 3 4 C1.68 3.01 0.36 2.02 -1 1 C-0.67 0.67 -0.34 0.34 0 0 Z " fill="#DDD292" transform="translate(54,92)"/>
<path d="M0 0 C2.31 0 4.62 0 7 0 C6.690625 0.53625 6.38125 1.0725 6.0625 1.625 C4.85867646 4.04411415 4.85867646 4.04411415 4.5 7.0625 C4 10 4 10 2 13 C1.67256571 15.36230346 1.67256571 15.36230346 1.68115234 18.0222168 C1.66128265 19.04304855 1.64141296 20.06388031 1.62094116 21.11564636 C1.60938995 22.21572525 1.59783875 23.31580414 1.5859375 24.44921875 C1.56657135 25.5769722 1.5472052 26.70472565 1.5272522 27.86665344 C1.46740693 31.47352503 1.42105078 35.08042844 1.375 38.6875 C1.33682482 41.1308734 1.29777336 43.57423328 1.2578125 46.01757812 C1.1617013 52.01159884 1.07666822 58.00570079 1 64 C0.67 64 0.34 64 0 64 C-0.0154612 63.16007256 -0.0154612 63.16007256 -0.03123474 62.30317688 C-0.14040282 56.41320672 -0.25489362 50.52335621 -0.37231445 44.63354492 C-0.41531414 42.44281547 -0.45700948 40.25205998 -0.49731445 38.0612793 C-0.55587548 34.89103096 -0.61838459 31.72089955 -0.68359375 28.55078125 C-0.70424896 27.52912872 -0.72490417 26.5074762 -0.7461853 25.4548645 C-0.89541917 19.05282972 -1.24601183 12.74242549 -1.99633789 6.37963867 C-2.0004595 3.70141388 -1.38183487 2.26385713 0 0 Z " fill="#C6AE79" transform="translate(170,23)"/>
<path d="M0 0 C49.5 0.495 49.5 0.495 100 1 C101 5 101 5 99.5625 7.75 C98.7890625 8.86375 98.7890625 8.86375 98 10 C97.505 8.02 97.505 8.02 97 6 C97.66 6 98.32 6 99 6 C98.505 4.02 98.505 4.02 98 2 C96.2247419 2.00666183 96.2247419 2.00666183 94.41362 2.01345825 C83.27444426 2.05395562 72.13528341 2.08396096 60.99605083 2.10362434 C55.26890183 2.11407322 49.54181213 2.12825256 43.81469727 2.15087891 C38.29043302 2.17256791 32.76622591 2.18456031 27.24192238 2.18975449 C25.13154005 2.19345734 23.02116093 2.20068782 20.91080284 2.21146011 C17.96089225 2.22592258 15.01121948 2.22798014 12.0612793 2.22705078 C10.7449778 2.23783661 10.7449778 2.23783661 9.40208435 2.24884033 C3.34215648 2.22810432 3.34215648 2.22810432 0 0 Z " fill="#5C502C" transform="translate(30,20)"/>
<path d="M0 0 C0.66 0.33 1.32 0.66 2 1 C-4.31746162 7.53001173 -10.61269787 13.65560611 -18 19 C-18.33 17.68 -18.66 16.36 -19 15 C-20.32 15 -21.64 15 -23 15 C-23.33 15.66 -23.66 16.32 -24 17 C-24.99 16.67 -25.98 16.34 -27 16 C-23.94128082 12.69576685 -20.32591182 11.03734813 -16.3125 9.125 C-11.76797791 6.92099338 -7.34895684 4.72484306 -3.125 1.9375 C-2.09375 1.298125 -1.0625 0.65875 0 0 Z " fill="#C3AF81" transform="translate(234,83)"/>
<path d="M0 0 C1.32 0.33 2.64 0.66 4 1 C4.97413867 5.55288925 4.90368666 9.22169198 4.1875 13.8125 C3.99800781 15.02808594 3.80851563 16.24367187 3.61328125 17.49609375 C2.87644479 21.70591733 2.00271061 25.84591319 1 30 C0.67 30 0.34 30 0 30 C0.08378906 29.15695313 0.16757813 28.31390625 0.25390625 27.4453125 C0.35574219 26.34960938 0.45757812 25.25390625 0.5625 24.125 C0.66691406 23.03445312 0.77132812 21.94390625 0.87890625 20.8203125 C1.22639404 18.04847977 1.22639404 18.04847977 0 16 C-0.99 16.33 -1.98 16.66 -3 17 C-4.56393356 13.02623171 -3.36145292 10.18622097 -2.0625 6.25 C-1.68222656 5.07953125 -1.30195312 3.9090625 -0.91015625 2.703125 C-0.60980469 1.81109375 -0.30945313 0.9190625 0 0 Z " fill="#886E33" transform="translate(127,130)"/>
<path d="M0 0 C6.0220983 0.62154684 11.64843147 1.85584818 17.5 3.375 C29.20391058 6.30761131 41.01609102 7.74355935 53 9 C53 9.33 53 9.66 53 10 C42.2929925 11.76848239 33.27384137 9.97530879 22.87841797 7.38305664 C20.82959589 6.9000936 20.82959589 6.9000936 18 7 C18 6.34 18 5.68 18 5 C13.71 5.66 9.42 6.32 5 7 C5 5.68 5 4.36 5 3 C2.525 2.01 2.525 2.01 0 1 C0 0.67 0 0.34 0 0 Z " fill="#8A6D2A" transform="translate(111,77)"/>
<path d="M0 0 C0.33 0 0.66 0 1 0 C1 4.29 1 8.58 1 13 C1.66 13 2.32 13 3 13 C3.66 12.01 4.32 11.02 5 10 C7.625 9.8125 7.625 9.8125 10 10 C9.60167969 10.556875 9.20335937 11.11375 8.79296875 11.6875 C6.13143565 15.52114379 3.80928584 19.05792591 2.3125 23.5 C1.879375 24.655 1.44625 25.81 1 27 C0.01 27.33 -0.98 27.66 -2 28 C-3.30832531 21.75296324 -2.56810793 16.32294425 -1.5625 10.0625 C-1.41490234 9.09248047 -1.26730469 8.12246094 -1.11523438 7.12304688 C-0.75241534 4.74716737 -0.38047493 2.37310477 0 0 Z " fill="#A89E69" transform="translate(23,27)"/>
<path d="M0 0 C1.32 0.33 2.64 0.66 4 1 C3.01 1.495 3.01 1.495 2 2 C3.74506615 3.74506615 6.19039143 3.23282784 8.56640625 3.31640625 C10.2534668 3.37924805 10.2534668 3.37924805 11.97460938 3.44335938 C13.75061523 3.50233398 13.75061523 3.50233398 15.5625 3.5625 C16.75037109 3.60568359 17.93824219 3.64886719 19.16210938 3.69335938 C22.10794784 3.79983546 25.0538743 3.90184841 28 4 C28 4.33 28 4.66 28 5 C18.76 5.33 9.52 5.66 0 6 C-0.33 22.17 -0.66 38.34 -1 55 C-1.33 55 -1.66 55 -2 55 C-2 40.81 -2 26.62 -2 12 C-2.66 12 -3.32 12 -4 12 C-4 8.7 -4 5.4 -4 2 C-2.02 2.99 -2.02 2.99 0 4 C0 2.68 0 1.36 0 0 Z " fill="#F9E3AF" transform="translate(195,26)"/>
<path d="M0 0 C9.38483109 2.49316247 18.69140099 5.23906735 28 8 C27.34 9.32 26.68 10.64 26 12 C19.69391735 11.13940519 13.85898451 9.39623495 7.9375 7.125 C6.93674438 6.75834229 6.93674438 6.75834229 5.91577148 6.38427734 C4.02734375 5.6328125 4.02734375 5.6328125 1 4 C0.06640625 1.8046875 0.06640625 1.8046875 0 0 Z " fill="#867745" transform="translate(79,100)"/>
<path d="M0 0 C6.35372519 -0.050652 12.70739844 -0.08571322 19.0612793 -0.10986328 C21.22340847 -0.11992951 23.385524 -0.13358354 25.54760742 -0.15087891 C28.65286625 -0.17509978 31.7579453 -0.18647681 34.86328125 -0.1953125 C35.83211746 -0.20563507 36.80095367 -0.21595764 37.79914856 -0.22659302 C38.6998558 -0.22674408 39.60056305 -0.22689514 40.52856445 -0.22705078 C41.71770195 -0.23371262 41.71770195 -0.23371262 42.93086243 -0.24050903 C45 0 45 0 48 2 C47.67 4.31 47.34 6.62 47 9 C40.25 11.125 40.25 11.125 38 10 C39.12451727 7.0280615 40.22293791 4.66559313 42 2 C28.14 1.67 14.28 1.34 0 1 C0 0.67 0 0.34 0 0 Z " fill="#88713A" transform="translate(55,31)"/>
<path d="M0 0 C24.48468499 -0.27340219 24.48468499 -0.27340219 27.76171875 2.48046875 C29 4 29 4 29 5 C26.02058002 5.05455703 23.04218469 5.09393851 20.0625 5.125 C18.81629883 5.15013672 18.81629883 5.15013672 17.54492188 5.17578125 C12.03221121 5.21868172 6.1517518 5.18407838 1 3 C0.67 2.01 0.34 1.02 0 0 Z " fill="#CEA33E" transform="translate(133,116)"/>
<path d="M0 0 C1.41687119 4.25061356 0.19320039 6.71851625 -1 11 C-0.34 11 0.32 11 1 11 C1.33 10.34 1.66 9.68 2 9 C4.97 9.99 7.94 10.98 11 12 C9.68 12.33 8.36 12.66 7 13 C7 13.99 7 14.98 7 16 C6.0925 16.0825 5.185 16.165 4.25 16.25 C0.59922161 17.09248732 -0.63384583 18.17881618 -3 21 C-4.56670458 14.26317029 -3.65496186 7.6779163 -2 1 C-1.34 0.67 -0.68 0.34 0 0 Z " fill="#F4DF8F" transform="translate(27,21)"/>
<path d="M0 0 C1.32 0.33 2.64 0.66 4 1 C3.92194569 3.73190078 3.50516691 5.45762533 1.62109375 7.48046875 C-1.8434981 10.24749177 -3.36172374 11.03039411 -7.9375 10.8125 C-8.948125 10.544375 -9.95875 10.27625 -11 10 C-11.3125 7.6875 -11.3125 7.6875 -11 5 C-8.8125 3.125 -8.8125 3.125 -6 2 C-3.1875 2.3125 -3.1875 2.3125 -1 3 C-0.67 2.01 -0.34 1.02 0 0 Z " fill="#D1BC8A" transform="translate(211,97)"/>
<path d="M0 0 C0.66 0.33 1.32 0.66 2 1 C2.02467332 6.80240568 2.04284724 12.60478098 2.05493164 18.40722656 C2.0599681 20.38216687 2.06679751 22.35710343 2.07543945 24.33203125 C2.08753508 27.16667605 2.0932351 30.00127166 2.09765625 32.8359375 C2.10281754 33.72243988 2.10797882 34.60894226 2.11329651 35.52230835 C2.11387171 41.77225659 2.11387171 41.77225659 1 44 C1.66 44.33 2.32 44.66 3 45 C3.1875 47.875 3.1875 47.875 3 51 C-0.6441774 53.4294516 -2.71241272 53.16179575 -7 53 C-7 52.67 -7 52.34 -7 52 C-4.03 51.505 -4.03 51.505 -1 51 C-0.67 34.17 -0.34 17.34 0 0 Z " fill="#F7DA9A" transform="translate(171,36)"/>
<path d="M0 0 C18.81 0 37.62 0 57 0 C57.495 1.98 57.495 1.98 58 4 C57.34 4 56.68 4 56 4 C56 4.99 56 5.98 56 7 C55.34 7 54.68 7 54 7 C52.875 3.25 52.875 3.25 54 1 C53.3088208 1.07726318 52.6176416 1.15452637 51.90551758 1.23413086 C41.14246482 2.26093413 30.47822762 1.89102332 19.6875 1.5625 C17.7715015 1.50914719 15.8554858 1.45640826 13.93945312 1.40429688 C9.29274039 1.2766006 4.64633873 1.14062421 0 1 C0 0.67 0 0.34 0 0 Z " fill="#C1A155" transform="translate(71,22)"/>
<path d="M0 0 C0.90763344 0.1071936 0.90763344 0.1071936 1.83360291 0.21655273 C7.9405532 0.88938565 13.92654967 1.12169492 20.06640625 1.0625 C20.98534164 1.05871338 21.90427704 1.05492676 22.85105896 1.05102539 C25.75492339 1.0389363 28.65868224 1.02031826 31.5625 1 C35.39713313 0.97321783 39.23171391 0.95331794 43.06640625 0.9375 C43.92915665 0.92920166 44.79190704 0.92090332 45.68080139 0.91235352 C51.20119384 0.89032875 56.52291309 1.29955059 62 2 C62 2.33 62 2.66 62 3 C41.54 3 21.08 3 0 3 C0 2.01 0 1.02 0 0 Z " fill="#FAF3B4" transform="translate(17,160)"/>
<path d="M0 0 C2.74576271 4.11864407 2.74576271 4.11864407 3 7 C1.6875 9.75 1.6875 9.75 0 12 C-0.66 12 -1.32 12 -2 12 C-2 12.66 -2 13.32 -2 14 C-0.01432292 14.1953125 1.97135417 14.390625 3.95703125 14.5859375 C6 15 6 15 9 17 C0.42857143 16 0.42857143 16 -3 15 C-3 15.99 -3 16.98 -3 18 C-4.33333333 17.33333333 -5.66666667 16.66666667 -7 16 C-6.67 13.36 -6.34 10.72 -6 8 C-4.02 8.495 -4.02 8.495 -2 9 C-0.74865147 6.17045475 -0.74865147 6.17045475 -1.5625 3.9375 C-1.706875 3.298125 -1.85125 2.65875 -2 2 C-1.34 1.34 -0.68 0.68 0 0 Z " fill="#927431" transform="translate(102,60)"/>
<path d="M0 0 C0.33 0 0.66 0 1 0 C1.33 3.96 1.66 7.92 2 12 C1.030625 12.12375 0.06125 12.2475 -0.9375 12.375 C-1.948125 12.58125 -2.95875 12.7875 -4 13 C-4.33 13.66 -4.66 14.32 -5 15 C-6.97522846 16.04808041 -8.97481509 17.0520411 -11 18 C-9.16498804 14.02915446 -6.7987998 10.42064614 -4.4375 6.75 C-3.8197168 5.77546875 -3.8197168 5.77546875 -3.18945312 4.78125 C-2.1546628 3.16894166 -1.08068976 1.58190987 0 0 Z " fill="#A28443" transform="translate(85,52)"/>
<path d="M0 0 C0.66 0.33 1.32 0.66 2 1 C0.92492371 2.29854721 -0.16043736 3.58858361 -1.25 4.875 C-1.85328125 5.59429687 -2.4565625 6.31359375 -3.078125 7.0546875 C-4.99794858 8.99792356 -6.55624394 9.85695281 -9 11 C-10.70496537 12.62746694 -12.37897032 14.28891311 -14 16 C-15 14 -16 12 -17 10 C-16.27554688 9.61328125 -15.55109375 9.2265625 -14.8046875 8.828125 C-9.70822457 6.0828303 -4.73786613 3.32931133 0 0 Z " fill="#B7A77E" transform="translate(233,66)"/>
<path d="M0 0 C0 0.99 0 1.98 0 3 C0.66 3 1.32 3 2 3 C2 3.66 2 4.32 2 5 C3.98 5 5.96 5 8 5 C8 9.95 8 14.9 8 20 C7.67 20 7.34 20 7 20 C7 15.38 7 10.76 7 6 C-0.26 6 -7.52 6 -15 6 C-15 5.67 -15 5.34 -15 5 C-14.28972656 4.95101562 -13.57945312 4.90203125 -12.84765625 4.8515625 C-11.92855469 4.77679688 -11.00945312 4.70203125 -10.0625 4.625 C-9.14597656 4.55539063 -8.22945312 4.48578125 -7.28515625 4.4140625 C-6.15400391 4.20910156 -6.15400391 4.20910156 -5 4 C-4.67 3.34 -4.34 2.68 -4 2 C-7.3 1.67 -10.6 1.34 -14 1 C-14 0.67 -14 0.34 -14 0 C-9.02936879 -0.91297308 -4.97063121 -0.91297308 0 0 Z " fill="#C7A75E" transform="translate(163,116)"/>
<path d="M0 0 C1.23814453 0.00902344 2.47628906 0.01804688 3.75195312 0.02734375 C6.77234511 0.05066724 9.79231399 0.08339523 12.8125 0.125 C12.8125 0.455 12.8125 0.785 12.8125 1.125 C12.04164062 1.16238281 11.27078125 1.19976562 10.4765625 1.23828125 C8.97222656 1.33689453 8.97222656 1.33689453 7.4375 1.4375 C5.94089844 1.52451172 5.94089844 1.52451172 4.4140625 1.61328125 C3.55554688 1.78214844 2.69703125 1.95101562 1.8125 2.125 C0.8225 3.61 0.8225 3.61 -0.1875 5.125 C-1.1775 5.125 -2.1675 5.125 -3.1875 5.125 C-3.5175 4.135 -3.8475 3.145 -4.1875 2.125 C-10.2957099 1.83238858 -10.2957099 1.83238858 -16.1875 3.125 C-16.5175 3.785 -16.8475 4.445 -17.1875 5.125 C-20.4875 4.795 -23.7875 4.465 -27.1875 4.125 C-21.11956079 -1.94293921 -7.91713891 -0.11096798 0 0 Z " fill="#EFDA91" transform="translate(31.1875,63.875)"/>
<path d="M0 0 C8.01470585 0.54278267 16.01303902 1.13505261 24 2 C24 2.33 24 2.66 24 3 C22.84371094 3.07347656 22.84371094 3.07347656 21.6640625 3.1484375 C20.66117188 3.22320312 19.65828125 3.29796875 18.625 3.375 C17.62726563 3.44460937 16.62953125 3.51421875 15.6015625 3.5859375 C12.84491121 3.76363964 12.84491121 3.76363964 11 6 C13.475 6.99 13.475 6.99 16 8 C12.23331402 9.3805087 9.55210827 8.59568159 5.75 7.5625 C4.67234375 7.27503906 3.5946875 6.98757812 2.484375 6.69140625 C1.25460938 6.34916016 1.25460938 6.34916016 0 6 C3.75 4.875 3.75 4.875 6 6 C6 5.34 6 4.68 6 4 C6.66 3.67 7.32 3.34 8 3 C5.36 2.67 2.72 2.34 0 2 C0 1.34 0 0.68 0 0 Z " fill="#816629" transform="translate(119,112)"/>
<path d="M0 0 C-0.61746094 0.28488281 -1.23492188 0.56976563 -1.87109375 0.86328125 C-4.16608634 1.94335715 -4.16608634 1.94335715 -6.0625 4.1875 C-10.08142777 6.66726394 -12.83691954 5.90741123 -17.37890625 5.1640625 C-20.27489074 4.98279372 -21.57399294 5.48160499 -24 7 C-24 5.68 -24 4.36 -24 3 C-20.33694766 2.25073929 -17.57644848 1.7619986 -14 3 C-14 2.34 -14 1.68 -14 1 C-9.32798795 -0.20568053 -4.78503708 -0.09382426 0 0 Z " fill="#F9EBA0" transform="translate(28,65)"/>
<path d="M0 0 C2.625 -0.1875 2.625 -0.1875 5 0 C5 0.66 5 1.32 5 2 C5.61488281 2.13277344 6.22976562 2.26554687 6.86328125 2.40234375 C7.67152344 2.57894531 8.47976562 2.75554687 9.3125 2.9375 C10.11300781 3.11152344 10.91351563 3.28554687 11.73828125 3.46484375 C14 4 14 4 17 5 C17 5.66 17 6.32 17 7 C18.0725 7.12375 19.145 7.2475 20.25 7.375 C23.37863615 7.89643936 25.33480424 8.40088254 28 10 C21.2605493 9.36617071 15.00449379 7.77702547 8.5 5.9375 C7.48679687 5.65583984 6.47359375 5.37417969 5.4296875 5.08398438 C2.95167266 4.39434817 0.47522 3.69958811 -2 3 C-1.34 2.01 -0.68 1.02 0 0 Z " fill="#78612B" transform="translate(99,93)"/>
<path d="M0 0 C0.99 0.33 1.98 0.66 3 1 C3 1.66 3 2.32 3 3 C4.65 3 6.3 3 8 3 C8 2.34 8 1.68 8 1 C11.69541586 0.04975021 14.30458414 0.04975021 18 1 C18 1.66 18 2.32 18 3 C16.02 3.66 14.04 4.32 12 5 C12 5.33 12 5.66 12 6 C6.147205 5.48517081 0.6702363 4.54642808 -5 3 C-4.360625 2.690625 -3.72125 2.38125 -3.0625 2.0625 C-1.06389179 1.1654837 -1.06389179 1.1654837 0 0 Z " fill="#BC9C50" transform="translate(61,80)"/>
<path d="M0 0 C9.57 0 19.14 0 29 0 C28.67 1.65 28.34 3.3 28 5 C25.4375 6.3125 25.4375 6.3125 23 7 C23.33 5.68 23.66 4.36 24 3 C22.700625 3.020625 21.40125 3.04125 20.0625 3.0625 C18.70834367 3.08399454 17.35243917 3.07148199 16 3 C15.67 2.67 15.34 2.34 15 2 C12.47403741 1.76346477 9.96892793 1.57826308 7.4375 1.4375 C6.72658203 1.39431641 6.01566406 1.35113281 5.28320312 1.30664062 C3.52238088 1.20028223 1.7612168 1.09961154 0 1 C0 0.67 0 0.34 0 0 Z " fill="#BEA86F" transform="translate(79,153)"/>
<path d="M0 0 C-4.31196609 0.94324258 -8.62065881 1.48041715 -13 2 C-13.33 1.01 -13.66 0.02 -14 -1 C-15.98 -0.34 -17.96 0.32 -20 1 C-20 -0.32 -20 -1.64 -20 -3 C-12.71246769 -5.24231763 -6.54904917 -3.52641109 0 0 Z " fill="#CD9C37" transform="translate(139,86)"/>
<path d="M0 0 C0.33 0.66 0.66 1.32 1 2 C2.32 1.34 3.64 0.68 5 0 C4.67 1.32 4.34 2.64 4 4 C5.32 4 6.64 4 8 4 C8 4.66 8 5.32 8 6 C4.0186217 7.3271261 0.14954773 7.06915913 -4 7 C-4 6.34 -4 5.68 -4 5 C-4.99 4.67 -5.98 4.34 -7 4 C-4.61426621 2.10786631 -2.92824652 0.97608217 0 0 Z " fill="#D3BC87" transform="translate(174,96)"/>
<path d="M0 0 C7.89723556 -0.48350422 15.33532703 1.32335279 23 3 C23 3.33 23 3.66 23 4 C22.31292969 4.06058594 21.62585938 4.12117188 20.91796875 4.18359375 C19.56638672 4.30927734 19.56638672 4.30927734 18.1875 4.4375 C16.84751953 4.55931641 16.84751953 4.55931641 15.48046875 4.68359375 C12.87256441 4.93489767 12.87256441 4.93489767 10 6 C10 5.34 10 4.68 10 4 C8.35 4 6.7 4 5 4 C4.67 3.01 4.34 2.02 4 1 C1.98491642 0.26676204 1.98491642 0.26676204 0 0 Z M7 6 C10 7 10 7 10 7 Z " fill="#8E7742" transform="translate(51,64)"/>
<path d="M0 0 C3.63 0 7.26 0 11 0 C11 0.66 11 1.32 11 2 C14.34252724 2.07427838 16.8035914 2.06546953 20 1 C19.34 2.98 18.68 4.96 18 7 C17.071875 6.731875 16.14375 6.46375 15.1875 6.1875 C10.13830268 4.74338801 5.06841593 3.37479636 0 2 C0 1.34 0 0.68 0 0 Z " fill="#A68536" transform="translate(116,98)"/>
<path d="M0 0 C0.66 0.99 1.32 1.98 2 3 C2 2.01 2 1.02 2 0 C7.23880078 0.55145271 11.97350697 1.42922093 17 3 C16.67 3.66 16.34 4.32 16 5 C14.14375 4.7215625 14.14375 4.7215625 12.25 4.4375 C9.16667884 4.04734337 6.98687475 4.07303887 4 5 C2.33376361 5.03786901 0.66602403 5.04627845 -1 5 C-1.33 3.68 -1.66 2.36 -2 1 C-1.34 0.67 -0.68 0.34 0 0 Z " fill="#BC9A49" transform="translate(97,75)"/>
<path d="M0 0 C0.33 0 0.66 0 1 0 C1.33 6.6 1.66 13.2 2 20 C2.66 20 3.32 20 4 20 C4 20.66 4 21.32 4 22 C1.72350033 24.19218487 0.55414353 24.98199238 -2.64453125 25.0859375 C-3.81048828 25.04339844 -3.81048828 25.04339844 -5 25 C-4.58427734 24.05253906 -4.58427734 24.05253906 -4.16015625 23.0859375 C-1.04538067 15.39321774 -0.241197 8.26099738 0 0 Z " fill="#B39858" transform="translate(169,138)"/>
<path d="M0 0 C2.97 0.99 5.94 1.98 9 3 C8.01 3.495 8.01 3.495 7 4 C7 4.99 7 5.98 7 7 C3.7220142 8.09266193 3.15868803 7.8361233 0 7 C-1.66623639 6.96213099 -3.33397597 6.95372155 -5 7 C-3.47793991 4.37098712 -2.15634036 2.15634036 0 0 Z " fill="#F7E492" transform="translate(64,96)"/>
<path d="M0 0 C0.99 0.33 1.98 0.66 3 1 C2.67 3.31 2.34 5.62 2 8 C-4.75 10.125 -4.75 10.125 -7 9 C-5.51461988 4.2962963 -5.51461988 4.2962963 -2.9375 2.8125 C-2.298125 2.544375 -1.65875 2.27625 -1 2 C-0.67 1.34 -0.34 0.68 0 0 Z " fill="#AF8C3C" transform="translate(100,32)"/>
<path d="M0 0 C0.33 0 0.66 0 1 0 C1.12910853 6.74233419 0.797837 13.30386804 0 20 C-0.33 20 -0.66 20 -1 20 C-1.33 17.36 -1.66 14.72 -2 12 C-2.99 12.495 -2.99 12.495 -4 13 C-4.66 11.02 -5.32 9.04 -6 7 C-5.34 7 -4.68 7 -4 7 C-3.71125 6.401875 -3.4225 5.80375 -3.125 5.1875 C-2 3 -2 3 0 0 Z " fill="#F0D89E" transform="translate(242,26)"/>
<path d="M0 0 C6.94545707 -0.20229487 13.62076335 0.58660853 20.5 1.5 C21.60859375 1.64308594 22.7171875 1.78617187 23.859375 1.93359375 C26.57353546 2.28456278 29.28700665 2.64013917 32 3 C32 3.33 32 3.66 32 4 C20.67192899 5.87106379 10.99647114 3.70557315 0 1 C0 0.67 0 0.34 0 0 Z " fill="#856D3C" transform="translate(132,83)"/>
<path d="M0 0 C0 1.32 0 2.64 0 4 C1.32 3.67 2.64 3.34 4 3 C4.33 3.99 4.66 4.98 5 6 C0.41968912 8.99481865 0.41968912 8.99481865 -2 10 C-4.4375 9.25 -4.4375 9.25 -6 8 C-4.02 8 -2.04 8 0 8 C-0.66 6.68 -1.32 5.36 -2 4 C-4.64 4 -7.28 4 -10 4 C-4 0 -4 0 0 0 Z " fill="#BEAE7E" transform="translate(200,103)"/>
<path d="M0 0 C0.99 0.33 1.98 0.66 3 1 C3 1.99 3 2.98 3 4 C-6.9 4 -16.8 4 -27 4 C-26.67 3.34 -26.34 2.68 -26 2 C-22.9375 1.375 -22.9375 1.375 -20 1 C-20 1.66 -20 2.32 -20 3 C-19.113125 2.835 -18.22625 2.67 -17.3125 2.5 C-14.45710492 2.06899697 -11.87247028 2 -9 2 C-8.01 1.67 -7.02 1.34 -6 1 C-3.99124558 1.27571139 -1.98821313 1.60235737 0 2 C0 1.34 0 0.68 0 0 Z " fill="#BD9C4D" transform="translate(95,27)"/>
<path d="M0 0 C0.33 0 0.66 0 1 0 C1.33 12.87 1.66 25.74 2 39 C1.01 39 0.02 39 -1 39 C-0.67 26.13 -0.34 13.26 0 0 Z " fill="#F9E8B5" transform="translate(193,115)"/>
<path d="M0 0 C1.04068391 3.12205172 0.99162646 4.66950789 0.66015625 7.88671875 C0.56669922 8.82451172 0.47324219 9.76230469 0.37695312 10.72851562 C0.27318359 11.70498047 0.16941406 12.68144531 0.0625 13.6875 C-0.03740234 14.67556641 -0.13730469 15.66363281 -0.24023438 16.68164062 C-0.4877804 19.12173718 -0.74125362 21.56106991 -1 24 C-2.9375 24.5625 -2.9375 24.5625 -5 25 C-6 24 -6 24 -6.0625 20.4375 C-6.041875 19.303125 -6.02125 18.16875 -6 17 C-5.34 17 -4.68 17 -4 17 C-4 18.98 -4 20.96 -4 23 C-3.34 23 -2.68 23 -2 23 C-2 15.74 -2 8.48 -2 1 C-1.34 0.67 -0.68 0.34 0 0 Z " fill="#8E8161" transform="translate(244,23)"/>
<path d="M0 0 C0.33 1.32 0.66 2.64 1 4 C-0.65 4.33 -2.3 4.66 -4 5 C-4 6.65 -4 8.3 -4 10 C-4.99 10.33 -5.98 10.66 -7 11 C-8.125 5.25 -8.125 5.25 -7 3 C-7.66 2.67 -8.32 2.34 -9 2 C-5.86501708 0.14223235 -3.62528568 -0.20140476 0 0 Z " fill="#DBC491" transform="translate(211,80)"/>
<path d="M0 0 C1.13825019 3.41475056 0.70549041 4.5509358 0 8 C0 9.216875 0 10.43375 0 11.6875 C0 15 0 15 -1 17 C-1.66 17 -2.32 17 -3 17 C-3.33 17.66 -3.66 18.32 -4 19 C-3.8590651 16.56212615 -3.71245458 14.12482147 -3.5625 11.6875 C-3.52318359 10.99720703 -3.48386719 10.30691406 -3.44335938 9.59570312 C-3.25072585 6.52838465 -2.97677283 3.93031848 -2 1 C-1.34 0.67 -0.68 0.34 0 0 Z " fill="#F6E79C" transform="translate(27,21)"/>
<path d="M0 0 C4.18108567 0.11869627 8.36195788 0.24297273 12.54272461 0.37231445 C13.96357775 0.41549804 15.38447726 0.45718408 16.80541992 0.49731445 C18.8534947 0.55542095 20.90133965 0.61899638 22.94921875 0.68359375 C24.17987061 0.72025146 25.41052246 0.75690918 26.6784668 0.79467773 C29.55826984 0.97269423 32.19587088 1.34609105 35 2 C35 2.33 35 2.66 35 3 C33.35492782 3.19406478 31.70890406 3.38007935 30.0625 3.5625 C28.68771484 3.71912109 28.68771484 3.71912109 27.28515625 3.87890625 C26.53105469 3.91886719 25.77695313 3.95882812 25 4 C24.67 3.67 24.34 3.34 24 3 C22.22130274 2.84235595 20.43681524 2.74899323 18.65234375 2.68359375 C17.57275391 2.64169922 16.49316406 2.59980469 15.38085938 2.55664062 C13.67639648 2.49766602 13.67639648 2.49766602 11.9375 2.4375 C10.79732422 2.39431641 9.65714844 2.35113281 8.48242188 2.30664062 C5.65507805 2.20017161 2.82764262 2.09815793 0 2 C0 1.34 0 0.68 0 0 Z " fill="#D1C28B" transform="translate(49,152)"/>
<path d="M0 0 C0.66 0.33 1.32 0.66 2 1 C-1.63 4.63 -5.26 8.26 -9 12 C-10.32 10.68 -11.64 9.36 -13 8 C-10.880788 6.63594382 -8.75551882 5.28368225 -6.625 3.9375 C-6.02171875 3.54755859 -5.4184375 3.15761719 -4.796875 2.75585938 C-3.23507443 1.77539568 -1.62007786 0.88083925 0 0 Z " fill="#989170" transform="translate(234,83)"/>
<path d="M0 0 C-0.20625 0.94875 -0.4125 1.8975 -0.625 2.875 C-0.74875 3.90625 -0.8725 4.9375 -1 6 C-0.34 6.66 0.32 7.32 1 8 C0.01 8.33 -0.98 8.66 -2 9 C-2 8.34 -2 7.68 -2 7 C-4.97 6.505 -4.97 6.505 -8 6 C-8 4.33333333 -8 2.66666667 -8 1 C-5.29120665 -0.35439668 -2.99066732 -0.06501451 0 0 Z " fill="#F1D695" transform="translate(203,84)"/>
<path d="M0 0 C7.425 0.99 7.425 0.99 15 2 C11 4 11 4 9 4 C9 4.66 9 5.32 9 6 C4.545 5.01 4.545 5.01 0 4 C0 2.68 0 1.36 0 0 Z " fill="#BD9A48" transform="translate(116,112)"/>
<path d="M0 0 C0.99 0.33 1.98 0.66 3 1 C1.75976392 4.72070823 0.04269852 5.62521091 -3 8 C-3.99 9.485 -3.99 9.485 -5 11 C-5.99 11.33 -6.98 11.66 -8 12 C-6.42527704 7.53828494 -4.40622971 2.20311486 0 0 Z " fill="#C5BE8D" transform="translate(51,107)"/>
<path d="M0 0 C1.8161982 0.42188459 3.62794073 0.86299165 5.4375 1.3125 C6.44683594 1.55613281 7.45617187 1.79976563 8.49609375 2.05078125 C9.32238281 2.36402344 10.14867188 2.67726563 11 3 C11.33 3.99 11.66 4.98 12 6 C7.84532871 6.19324053 4.6617375 6.09242143 1 4 C0.36328125 1.921875 0.36328125 1.921875 0 0 Z " fill="#938657" transform="translate(79,100)"/>
<path d="M0 0 C0.99 0.33 1.98 0.66 3 1 C2.77139942 2.46184058 2.51629608 3.91955419 2.25 5.375 C2.04117187 6.59316406 2.04117187 6.59316406 1.828125 7.8359375 C1 10 1 10 -1.078125 11.2890625 C-2.02945312 11.64097656 -2.02945312 11.64097656 -3 12 C-3 10.02 -3 8.04 -3 6 C-2.34 6 -1.68 6 -1 6 C-0.67 4.02 -0.34 2.04 0 0 Z " fill="#CCC086" transform="translate(24,43)"/>
<path d="M0 0 C0.66 0.33 1.32 0.66 2 1 C1.360625 1.268125 0.72125 1.53625 0.0625 1.8125 C-2.33131686 2.88667752 -2.33131686 2.88667752 -3 6 C-6.98196457 7.05404945 -9.98195309 6.84098656 -14 6 C-11.54268128 3.54268128 -9.78504568 3.27111307 -6.4375 2.4375 C-2.92225001 1.78577597 -2.92225001 1.78577597 0 0 Z " fill="#6C5A2E" transform="translate(117,147)"/>
<path d="M0 0 C10.55808656 -0.18451025 10.55808656 -0.18451025 15 1 C14.01 2.485 14.01 2.485 13 4 C9.04 3.67 5.08 3.34 1 3 C0.67 2.01 0.34 1.02 0 0 Z " fill="#C49937" transform="translate(133,116)"/>
<path d="M0 0 C0.99 1.32 1.98 2.64 3 4 C2.01 4 1.02 4 0 4 C-0.33 5.98 -0.66 7.96 -1 10 C-2.8125 10.625 -2.8125 10.625 -5 11 C-5.99 10.34 -6.98 9.68 -8 9 C-6.71034824 7.62437146 -5.37310707 6.29233607 -4 5 C-3.34 5 -2.68 5 -2 5 C-1.34 3.35 -0.68 1.7 0 0 Z " fill="#9F803C" transform="translate(123,141)"/>
<path d="M0 0 C0.68707555 2.49064888 1 4.37886292 1 7 C-2.12290635 6.51421457 -4.99580359 6.0013988 -8 5 C-8 4.34 -8 3.68 -8 3 C-8.66 2.67 -9.32 2.34 -10 2 C-8.72125 2.04125 -7.4425 2.0825 -6.125 2.125 C-3.98128508 2.24212873 -3.98128508 2.24212873 -2 2 C-1.34 1.34 -0.68 0.68 0 0 Z " fill="#B99843" transform="translate(100,88)"/>
<path d="M0 0 C3.63 0 7.26 0 11 0 C11 0.99 11 1.98 11 3 C7.37 3 3.74 3 0 3 C0 2.01 0 1.02 0 0 Z " fill="#CDBE8C" transform="translate(204,160)"/>
<path d="M0 0 C1.32 0.33 2.64 0.66 4 1 C4 2.32 4 3.64 4 5 C-2.75 6.125 -2.75 6.125 -5 5 C-4.67 4.01 -4.34 3.02 -4 2 C-3.01 2.33 -2.02 2.66 -1 3 C-0.67 2.01 -0.34 1.02 0 0 Z " fill="#F2D99D" transform="translate(211,97)"/>
<path d="M0 0 C0 0.33 0 0.66 0 1 C-1.06541016 1.18175781 -1.06541016 1.18175781 -2.15234375 1.3671875 C-3.07144531 1.53476563 -3.99054687 1.70234375 -4.9375 1.875 C-5.85402344 2.03742188 -6.77054688 2.19984375 -7.71484375 2.3671875 C-8.46894531 2.57601562 -9.22304687 2.78484375 -10 3 C-10.33 3.66 -10.66 4.32 -11 5 C-14.3 4.67 -17.6 4.34 -21 4 C-16.1461325 -0.8538675 -6.52382999 -0.24618226 0 0 Z " fill="#8F8A5D" transform="translate(25,64)"/>
<path d="M0 0 C5.75 1.875 5.75 1.875 8 3 C8 3.66 8 4.32 8 5 C9.65 5.33 11.3 5.66 13 6 C9.29218328 7.23593891 8.32489747 6.5678132 4.8125 5.0625 C3.91144531 4.68222656 3.01039062 4.30195312 2.08203125 3.91015625 C1.39496094 3.60980469 0.70789063 3.30945313 0 3 C0 2.01 0 1.02 0 0 Z " fill="#796430" transform="translate(84,88)"/>
<path d="M0 0 C0.99 0.33 1.98 0.66 3 1 C2.67 1.33 2.34 1.66 2 2 C2.0825 2.94875 2.165 3.8975 2.25 4.875 C2.1675 5.90625 2.085 6.9375 2 8 C-0.5 9.875 -0.5 9.875 -3 11 C-2.01 7.37 -1.02 3.74 0 0 Z " fill="#907637" transform="translate(127,130)"/>
<path d="M0 0 C1.32 0 2.64 0 4 0 C3.32902328 4.19360449 1.1441606 7.40334352 -1 11 C-1.66 10.01 -2.32 9.02 -3 8 C-2.34 8 -1.68 8 -1 8 C-0.67 5.36 -0.34 2.72 0 0 Z " fill="#B5A46C" transform="translate(76,102)"/>
<path d="M0 0 C0 3.38878512 -0.64361198 4.39757217 -2.4375 7.1875 C-2.88996094 7.90292969 -3.34242187 8.61835937 -3.80859375 9.35546875 C-4.20175781 9.89816406 -4.59492187 10.44085938 -5 11 C-5.33 11 -5.66 11 -6 11 C-6.125 8.125 -6.125 8.125 -6 5 C-5.34 4.34 -4.68 3.68 -4 3 C-4.33 2.34 -4.66 1.68 -5 1 C-3.35 0.67 -1.7 0.34 0 0 Z " fill="#846C2C" transform="translate(118,43)"/>
<path d="M0 0 C1.32 0.66 2.64 1.32 4 2 C2.8141763 5.37503669 1.72426311 7.64722731 -1 10 C-1.9765625 3.9453125 -1.9765625 3.9453125 -2 2 C-1.34 1.34 -0.68 0.68 0 0 Z " fill="#C2B77A" transform="translate(65,118)"/>
<path d="M0 0 C0.78375 0.04125 1.5675 0.0825 2.375 0.125 C2.705 0.785 3.035 1.445 3.375 2.125 C2.055 2.455 0.735 2.785 -0.625 3.125 C0.365 4.61 0.365 4.61 1.375 6.125 C-2.18280196 5.51509109 -5.3078589 4.5466319 -8.625 3.125 C-8.00625 3.00125 -7.3875 2.8775 -6.75 2.75 C-3.73158194 1.86222998 -3.29239416 0.15678067 0 0 Z " fill="#735E33" transform="translate(109.625,108.875)"/>
<path d="M0 0 C3.3 0.33 6.6 0.66 10 1 C9.34 2.32 8.68 3.64 8 5 C2.25 3.375 2.25 3.375 0 0 Z " fill="#AA9157" transform="translate(97,107)"/>
<path d="M0 0 C2.64 0 5.28 0 8 0 C7.01 0.495 7.01 0.495 6 1 C5.34786708 3.02463255 5.34786708 3.02463255 5 5 C3.35 5 1.7 5 0 5 C0 3.35 0 1.7 0 0 Z " fill="#DDC276" transform="translate(47,65)"/>
<path d="M0 0 C0.66 0 1.32 0 2 0 C1.88570603 1.77155654 1.75816963 3.54226229 1.625 5.3125 C1.55539063 6.29863281 1.48578125 7.28476563 1.4140625 8.30078125 C1 11 1 11 -1 14 C-1.66 14 -2.32 14 -3 14 C-2.67 12.35 -2.34 10.7 -2 9 C-1.34 9 -0.68 9 0 9 C0 6.03 0 3.06 0 0 Z " fill="#B99B4E" transform="translate(126,149)"/>
<path d="M0 0 C-0.1875 1.875 -0.1875 1.875 -1 4 C-3.5625 5.25 -3.5625 5.25 -6 6 C-5.67 4.68 -5.34 3.36 -5 2 C-5.99 1.67 -6.98 1.34 -8 1 C-4.93251126 -0.86240388 -3.40254489 -1.2151946 0 0 Z " fill="#BD9A4D" transform="translate(108,154)"/>
<path d="M0 0 C1.36741555 2.25221384 2.04066478 3.52557758 1.8125 6.1875 C1.544375 6.785625 1.27625 7.38375 1 8 C0.01 8.33 -0.98 8.66 -2 9 C-3 8 -3 8 -3.0625 4.9375 C-3.041875 3.968125 -3.02125 2.99875 -3 2 C-2.01 2 -1.02 2 0 2 C0 1.34 0 0.68 0 0 Z " fill="#ECC875" transform="translate(173,150)"/>
<path d="M0 0 C0.66 0.66 1.32 1.32 2 2 C-3.56890517 1.52013969 -8.67067568 0.70084819 -14 -1 C-12.66961551 -1.3449145 -11.33542939 -1.67516582 -10 -2 C-9.195625 -2.2475 -8.39125 -2.495 -7.5625 -2.75 C-4.13978858 -3.08392307 -2.73069001 -1.99266568 0 0 Z " fill="#725B29" transform="translate(133,119)"/>
<path d="M0 0 C3.63 0 7.26 0 11 0 C11 0.99 11 1.98 11 3 C6.99799622 4.60080151 3.95443764 3.29279692 0 2 C0 1.34 0 0.68 0 0 Z " fill="#C39B3C" transform="translate(116,98)"/>
<path d="M0 0 C0.33 0.66 0.66 1.32 1 2 C3.31 2 5.62 2 8 2 C8 2.99 8 3.98 8 5 C5.03 5 2.06 5 -1 5 C-1.33 3.68 -1.66 2.36 -2 1 C-1.34 0.67 -0.68 0.34 0 0 Z " fill="#C29741" transform="translate(97,75)"/>
<path d="M0 0 C0.66 0.33 1.32 0.66 2 1 C-0.31 3.64 -2.62 6.28 -5 9 C-6.32 8.01 -7.64 7.02 -9 6 C-6.03 4.02 -3.06 2.04 0 0 Z " fill="#7D7764" transform="translate(233,66)"/>
<path d="M0 0 C1.625 0.3125 1.625 0.3125 4 1 C5.2375 1.350625 6.475 1.70125 7.75 2.0625 C8.8225 2.371875 9.895 2.68125 11 3 C11 3.33 11 3.66 11 4 C9.56260487 4.02712066 8.12506137 4.04645067 6.6875 4.0625 C5.48673828 4.07990234 5.48673828 4.07990234 4.26171875 4.09765625 C2 4 2 4 -1 3 C-1.33 3.99 -1.66 4.98 -2 6 C-1.125 1.125 -1.125 1.125 0 0 Z " fill="#BEB079" transform="translate(26,19)"/>
<path d="M0 0 C5.52 -0.368 5.52 -0.368 7.875 1.4375 C9 3 9 3 9 4 C2.375 4.25 2.375 4.25 -1 2 C-0.67 1.34 -0.34 0.68 0 0 Z " fill="#D9AE4D" transform="translate(153,117)"/>
<path d="M0 0 C0.99 0.33 1.98 0.66 3 1 C3 1.66 3 2.32 3 3 C3.639375 3.12375 4.27875 3.2475 4.9375 3.375 C5.618125 3.58125 6.29875 3.7875 7 4 C7.33 4.66 7.66 5.32 8 6 C3.71 5.01 -0.58 4.02 -5 3 C-3.68 2.34 -2.36 1.68 -1 1 C-0.67 0.67 -0.34 0.34 0 0 Z " fill="#957F49" transform="translate(61,80)"/>
<path d="M0 0 C0.80824219 0.28746094 1.61648437 0.57492188 2.44921875 0.87109375 C3.06410156 1.09925781 3.67898437 1.32742187 4.3125 1.5625 C4.3125 1.8925 4.3125 2.2225 4.3125 2.5625 C0.0225 2.2325 -4.2675 1.9025 -8.6875 1.5625 C-6.63409113 -2.54431775 -3.59783097 -1.30356194 0 0 Z " fill="#EFDE98" transform="translate(33.6875,74.4375)"/>
<path d="M0 0 C0.66 0.33 1.32 0.66 2 1 C1.35455571 4.48539917 -0.10134397 7.02819057 -2 10 C-3 8 -4 6 -5 4 C-3.35 3.67 -1.7 3.34 0 3 C0 2.01 0 1.02 0 0 Z " fill="#C9BB7A" transform="translate(72,110)"/>
<path d="M0 0 C0.66 0 1.32 0 2 0 C2 1.65 2 3.3 2 5 C1.34 5 0.68 5 0 5 C-0.33 6.32 -0.66 7.64 -1 9 C-1 8.34 -1 7.68 -1 7 C-1.99 6.67 -2.98 6.34 -4 6 C-2.7260411 3.96166576 -1.38938077 1.96147874 0 0 Z " fill="#C2983A" transform="translate(107,49)"/>
<path d="M0 0 C2.64 0 5.28 0 8 0 C7.67 2.31 7.34 4.62 7 7 C5 5.6875 5 5.6875 3 4 C3 3.01 3 2.02 3 1 C2.01 0.67 1.02 0.34 0 0 Z " fill="#CFB273" transform="translate(162,23)"/>
<path d="M0 0 C0.99 0 1.98 0 3 0 C3 0.99 3 1.98 3 3 C4.32 2.01 5.64 1.02 7 0 C6.67 1.32 6.34 2.64 6 4 C-0.93 3.505 -0.93 3.505 -8 3 C-8 2.67 -8 2.34 -8 2 C-6.865625 1.855625 -5.73125 1.71125 -4.5625 1.5625 C-1.19222799 1.38828522 -1.19222799 1.38828522 0 0 Z " fill="#997D34" transform="translate(120,160)"/>
<path d="M0 0 C0.99 0.33 1.98 0.66 3 1 C2.67 1.66 2.34 2.32 2 3 C2 3.33 2 3.66 2 4 C2 5.32 2 6.64 2 8 C0.35 7.67 -1.3 7.34 -3 7 C-1.125 1.125 -1.125 1.125 0 0 Z " fill="#F8E292" transform="translate(67,112)"/>
<path d="M0 0 C2.64 0 5.28 0 8 0 C8 0.66 8 1.32 8 2 C9.32 2.66 10.64 3.32 12 4 C9.69 4 7.38 4 5 4 C4.67 3.01 4.34 2.02 4 1 C1.98491642 0.26676204 1.98491642 0.26676204 0 0 Z " fill="#97864D" transform="translate(51,64)"/>
<path d="M0 0 C0.99 0.99 1.98 1.98 3 3 C2.34 3.66 1.68 4.32 1 5 C0.67 5.99 0.34 6.98 0 8 C-0.33 7.34 -0.66 6.68 -1 6 C-1.99 6.495 -1.99 6.495 -3 7 C-3.33 5.35 -3.66 3.7 -4 2 C-2.68 1.34 -1.36 0.68 0 0 Z " fill="#BF9A40" transform="translate(100,63)"/>
<path d="M0 0 C1 2 1 2 0.375 4.9375 C-1.21652215 8.48225388 -2.55084038 9.36618755 -6 11 C-4.54955729 6.89041233 -2.48889248 3.56741255 0 0 Z " fill="#7E6233" transform="translate(92,41)"/>
<path d="M0 0 C0 3.41321235 -0.66867466 4.39472885 -2.5 7.1875 C-2.9640625 7.90292969 -3.428125 8.61835937 -3.90625 9.35546875 C-4.2671875 9.89816406 -4.628125 10.44085938 -5 11 C-6.04449911 7.86650268 -5.93423645 7.01031744 -5 4 C-4.34 4 -3.68 4 -3 4 C-3 3.34 -3 2.68 -3 2 C-2.01 1.34 -1.02 0.68 0 0 Z " fill="#6E5A23" transform="translate(125,32)"/>
<path d="M0 0 C-0.33 1.32 -0.66 2.64 -1 4 C-2.65 4 -4.3 4 -6 4 C-6.33 2.68 -6.66 1.36 -7 0 C-4.3333581 -1.33332095 -2.83319697 -0.67102033 0 0 Z " fill="#E9CD81" transform="translate(45,74)"/>
<path d="M0 0 C6.27 0.33 12.54 0.66 19 1 C19 1.33 19 1.66 19 2 C9.595 2.495 9.595 2.495 0 3 C0 2.01 0 1.02 0 0 Z " fill="#948F5C" transform="translate(0,74)"/>
<path d="M0 0 C0.763125 0.0825 1.52625 0.165 2.3125 0.25 C-0.1625 3.715 -0.1625 3.715 -2.6875 7.25 C-3.0175 6.59 -3.3475 5.93 -3.6875 5.25 C-4.3475 4.92 -5.0075 4.59 -5.6875 4.25 C-3.34903846 0.31153846 -3.34903846 0.31153846 0 0 Z " fill="#C6B976" transform="translate(30.6875,36.75)"/>
<path d="M0 0 C0.66 0 1.32 0 2 0 C2 0.66 2 1.32 2 2 C2.99 2.33 3.98 2.66 5 3 C5.33 3.99 5.66 4.98 6 6 C3.69 5.67 1.38 5.34 -1 5 C-0.67 3.35 -0.34 1.7 0 0 Z " fill="#F8E1A6" transform="translate(193,155)"/>
<path d="M0 0 C2 3 2 3 2 5 C0.35 5.33 -1.3 5.66 -3 6 C-3.33 4.35 -3.66 2.7 -4 1 C-3.01 1 -2.02 1 -1 1 C-0.67 0.67 -0.34 0.34 0 0 Z M-6 5 C-4 6 -4 6 -4 6 Z " fill="#FBF3B6" transform="translate(34,138)"/>
<path d="M0 0 C1 2 1 2 0.9375 4.4375 C0 7 0 7 -3.0625 8.8125 C-4.031875 9.204375 -5.00125 9.59625 -6 10 C-4.34832443 6.4213696 -2.21713508 3.25179812 0 0 Z " fill="#786236" transform="translate(80,60)"/>
<path d="M0 0 C0.99 0.66 1.98 1.32 3 2 C1.25 6.875 1.25 6.875 -1 8 C-1.33 6.02 -1.66 4.04 -2 2 C-1.34 2 -0.68 2 0 2 C0 1.34 0 0.68 0 0 Z " fill="#927431" transform="translate(109,52)"/>
<path d="M0 0 C-3.4019487 2.09350689 -6.05272412 2.17942163 -10 2 C-9.67 1.01 -9.34 0.02 -9 -1 C-5.23375329 -2.25541557 -3.62811066 -1.37061958 0 0 Z " fill="#F0CC83" transform="translate(179,161)"/>
<path d="M0 0 C2 2 2 2 2.1953125 3.9453125 C2.13020833 5.96354167 2.06510417 7.98177083 2 10 C1.01 10 0.02 10 -1 10 C-0.67 6.7 -0.34 3.4 0 0 Z " fill="#F4E1A7" transform="translate(193,144)"/>
<path d="M0 0 C0.66 0.99 1.32 1.98 2 3 C0.25 6.875 0.25 6.875 -2 8 C-2.6875 6.25 -2.6875 6.25 -3 4 C-1.5625 1.75 -1.5625 1.75 0 0 Z " fill="#CBC493" transform="translate(33,133)"/>
<path d="M0 0 C1.32 0.66 2.64 1.32 4 2 C2.68 3.65 1.36 5.3 0 7 C0 6.01 0 5.02 0 4 C-0.66 4 -1.32 4 -2 4 C-1.34 2.68 -0.68 1.36 0 0 Z " fill="#C1B783" transform="translate(59,129)"/>
<path d="M0 0 C2.31 0 4.62 0 7 0 C7 1.65 7 3.3 7 5 C5.68 4.67 4.36 4.34 3 4 C3 3.01 3 2.02 3 1 C2.01 0.67 1.02 0.34 0 0 Z " fill="#E4BE6E" transform="translate(160,115)"/>
<path d="M0 0 C5.445 1.485 5.445 1.485 11 3 C9.02 3.99 9.02 3.99 7 5 C7 4.34 7 3.68 7 3 C6.01 3.33 5.02 3.66 4 4 C1.3125 3.0625 1.3125 3.0625 -1 2 C-0.67 1.34 -0.34 0.68 0 0 Z " fill="#746E51" transform="translate(54,92)"/>
<path d="M0 0 C0.66 1.32 1.32 2.64 2 4 C1.01 4.99 0.02 5.98 -1 7 C-1.99 6.67 -2.98 6.34 -4 6 C-2.68 4.02 -1.36 2.04 0 0 Z " fill="#CCC99E" transform="translate(24,147)"/>
<path d="M0 0 C0 0.66 0 1.32 0 2 C-4.75 3.125 -4.75 3.125 -7 2 C-7 1.34 -7 0.68 -7 0 C-4.3333581 -1.33332095 -2.83319697 -0.67102033 0 0 Z " fill="#D6C494" transform="translate(224,93)"/>
<path d="M0 0 C4.83256305 0.41421969 6.82679218 2.46413986 10 6 C3.47692308 4.52307692 3.47692308 4.52307692 1.0625 1.875 C0.711875 1.25625 0.36125 0.6375 0 0 Z " fill="#856C3A" transform="translate(74,85)"/>
<path d="M0 0 C1.98 0.495 1.98 0.495 4 1 C4 1.66 4 2.32 4 3 C3.34 3 2.68 3 2 3 C2 3.99 2 4.98 2 6 C1.34 6 0.68 6 0 6 C-1.125 2.25 -1.125 2.25 0 0 Z " fill="#C89D37" transform="translate(125,23)"/>
<path d="M0 0 C0.33 0 0.66 0 1 0 C1.66 3.96 2.32 7.92 3 12 C2.01 11.67 1.02 11.34 0 11 C0 10.34 0 9.68 0 9 C-0.66 8.67 -1.32 8.34 -2 8 C-1.34 8 -0.68 8 0 8 C0 5.36 0 2.72 0 0 Z " fill="#8A7C5A" transform="translate(195,146)"/>
<path d="M0 0 C0.33 0.66 0.66 1.32 1 2 C0.67 2.66 0.34 3.32 0 4 C1.32 4.33 2.64 4.66 4 5 C1.03 5 -1.94 5 -5 5 C-4.34 4.67 -3.68 4.34 -3 4 C-3 3.34 -3 2.68 -3 2 C-2.01 1.34 -1.02 0.68 0 0 Z " fill="#F9DCA0" transform="translate(178,96)"/>
<path d="M0 0 C0 0.99 0 1.98 0 3 C-3 5 -3 5 -5.1875 4.625 C-5.785625 4.41875 -6.38375 4.2125 -7 4 C-4.61426621 2.10786631 -2.92824652 0.97608217 0 0 Z " fill="#F5D588" transform="translate(174,96)"/>
<path d="M0 0 C-0.33 0.99 -0.66 1.98 -1 3 C-4.3 2.67 -7.6 2.34 -11 2 C-11 1.67 -11 1.34 -11 1 C-3.375 0 -3.375 0 0 0 Z " fill="#978046" transform="translate(166,159)"/>
<path d="M0 0 C0.99 0.33 1.98 0.66 3 1 C2.67 1.99 2.34 2.98 2 4 C0.35 4 -1.3 4 -3 4 C-2.67 3.01 -2.34 2.02 -2 1 C-1.34 0.67 -0.68 0.34 0 0 Z " fill="#D8CE91" transform="translate(51,107)"/>
<path d="M0 0 C4.455 0.99 4.455 0.99 9 2 C8.67 2.66 8.34 3.32 8 4 C5.23723823 3.47731534 2.6739124 2.89130413 0 2 C0 1.34 0 0.68 0 0 Z " fill="#D1A546" transform="translate(130,83)"/>
<path d="M0 0 C1.32 0.66 2.64 1.32 4 2 C1.44931155 4.35448165 0.28982642 4.98327924 -3.25 5.1875 C-4.1575 5.125625 -5.065 5.06375 -6 5 C-6 4.67 -6 4.34 -6 4 C-4.35 4 -2.7 4 -1 4 C-0.67 2.68 -0.34 1.36 0 0 Z " fill="#BDA366" transform="translate(45,74)"/>
<path d="M0 0 C0.33 0.99 0.66 1.98 1 3 C2.32 3.33 3.64 3.66 5 4 C2.03 4 -0.94 4 -4 4 C-4 3.34 -4 2.68 -4 2 C-2.68 1.34 -1.36 0.68 0 0 Z " fill="#CDBA77" transform="translate(43,29)"/>
<path d="M0 0 C0.99 0 1.98 0 3 0 C2.50168276 3.68754757 1.89932357 5.60490662 -1 8 C-1 6.68 -1 5.36 -1 4 C-0.34 4 0.32 4 1 4 C0.67 2.68 0.34 1.36 0 0 Z " fill="#6C5728" transform="translate(128,22)"/>
<path d="" fill="#000000" transform="translate(0,0)"/>
</svg>
